<svg width="16" height="16" viewBox="0 0 16 16" fill="none" xmlns="http://www.w3.org/2000/svg">
<g opacity="0.7">
<path d="M12.4688 5.88274C12.3333 5.75907 12.1771 5.69724 12 5.69724C11.8229 5.69724 11.6667 5.75907 11.5312 5.88274L8 9.39193L4.46875 5.88274C4.33333 5.75907 4.17708 5.69724 4 5.69724C3.82292 5.69724 3.66667 5.75907 3.53125 5.88274C3.39583 6.01672 3.32812 6.17131 3.32812 6.34651C3.32812 6.52172 3.39583 6.67631 3.53125 6.81028L7.53125 10.7678C7.60417 10.8399 7.6849 10.8915 7.77344 10.9224C7.86198 10.9533 7.9375 10.9688 8 10.9688C8.0625 10.9688 8.13802 10.9533 8.22656 10.9224C8.3151 10.8915 8.39583 10.8399 8.46875 10.7678L12.4688 6.81028C12.6042 6.67631 12.6719 6.52172 12.6719 6.34651C12.6719 6.17131 12.6042 6.01672 12.4688 5.88274Z" fill="#F2F2F2"/>
</g>
</svg>
