<svg width="52" height="52" viewBox="0 0 52 52" fill="none" xmlns="http://www.w3.org/2000/svg">
<g filter="url(#filter0_d_2300_6377)">
<circle cx="26" cy="22" r="21" fill="white"/>
</g>
<path d="M23.452 16.5802L24.513 15.5202L30.292 21.2972C30.3851 21.3898 30.4591 21.4999 30.5095 21.6211C30.56 21.7424 30.5859 21.8724 30.5859 22.0037C30.5859 22.1351 30.56 22.2651 30.5095 22.3863C30.4591 22.5076 30.3851 22.6177 30.292 22.7102L24.513 28.4902L23.453 27.4302L28.877 22.0052L23.452 16.5802Z" fill="black"/>
<g filter="url(#filter1_d_2300_6377)">
<circle cx="26" cy="22" r="21" fill="white"/>
</g>
<path d="M23.452 16.5802L24.513 15.5202L30.292 21.2972C30.3851 21.3898 30.4591 21.4999 30.5095 21.6211C30.56 21.7424 30.5859 21.8724 30.5859 22.0037C30.5859 22.1351 30.56 22.2651 30.5095 22.3863C30.4591 22.5076 30.3851 22.6177 30.292 22.7102L24.513 28.4902L23.453 27.4302L28.877 22.0052L23.452 16.5802Z" fill="black"/>
<g filter="url(#filter2_d_2300_6377)">
<circle cx="26" cy="22" r="21" fill="white"/>
</g>
<path d="M23.452 16.5802L24.513 15.5202L30.292 21.2972C30.3851 21.3898 30.4591 21.4999 30.5095 21.6211C30.56 21.7424 30.5859 21.8724 30.5859 22.0037C30.5859 22.1351 30.56 22.2651 30.5095 22.3863C30.4591 22.5076 30.3851 22.6177 30.292 22.7102L24.513 28.4902L23.453 27.4302L28.877 22.0052L23.452 16.5802Z" fill="black"/>
<defs>
<filter id="filter0_d_2300_6377" x="0" y="0" width="52" height="52" filterUnits="userSpaceOnUse" color-interpolation-filters="sRGB">
<feFlood flood-opacity="0" result="BackgroundImageFix"/>
<feColorMatrix in="SourceAlpha" type="matrix" values="0 0 0 0 0 0 0 0 0 0 0 0 0 0 0 0 0 0 127 0" result="hardAlpha"/>
<feOffset dy="4"/>
<feGaussianBlur stdDeviation="2.5"/>
<feComposite in2="hardAlpha" operator="out"/>
<feColorMatrix type="matrix" values="0 0 0 0 0 0 0 0 0 0 0 0 0 0 0 0 0 0 0.1 0"/>
<feBlend mode="normal" in2="BackgroundImageFix" result="effect1_dropShadow_2300_6377"/>
<feBlend mode="normal" in="SourceGraphic" in2="effect1_dropShadow_2300_6377" result="shape"/>
</filter>
<filter id="filter1_d_2300_6377" x="0" y="0" width="52" height="52" filterUnits="userSpaceOnUse" color-interpolation-filters="sRGB">
<feFlood flood-opacity="0" result="BackgroundImageFix"/>
<feColorMatrix in="SourceAlpha" type="matrix" values="0 0 0 0 0 0 0 0 0 0 0 0 0 0 0 0 0 0 127 0" result="hardAlpha"/>
<feOffset dy="4"/>
<feGaussianBlur stdDeviation="2.5"/>
<feComposite in2="hardAlpha" operator="out"/>
<feColorMatrix type="matrix" values="0 0 0 0 0 0 0 0 0 0 0 0 0 0 0 0 0 0 0.1 0"/>
<feBlend mode="normal" in2="BackgroundImageFix" result="effect1_dropShadow_2300_6377"/>
<feBlend mode="normal" in="SourceGraphic" in2="effect1_dropShadow_2300_6377" result="shape"/>
</filter>
<filter id="filter2_d_2300_6377" x="0" y="0" width="52" height="52" filterUnits="userSpaceOnUse" color-interpolation-filters="sRGB">
<feFlood flood-opacity="0" result="BackgroundImageFix"/>
<feColorMatrix in="SourceAlpha" type="matrix" values="0 0 0 0 0 0 0 0 0 0 0 0 0 0 0 0 0 0 127 0" result="hardAlpha"/>
<feOffset dy="4"/>
<feGaussianBlur stdDeviation="2.5"/>
<feComposite in2="hardAlpha" operator="out"/>
<feColorMatrix type="matrix" values="0 0 0 0 0 0 0 0 0 0 0 0 0 0 0 0 0 0 0.1 0"/>
<feBlend mode="normal" in2="BackgroundImageFix" result="effect1_dropShadow_2300_6377"/>
<feBlend mode="normal" in="SourceGraphic" in2="effect1_dropShadow_2300_6377" result="shape"/>
</filter>
</defs>
</svg>
