<svg width="27" height="27" viewBox="0 0 27 27" fill="none" xmlns="http://www.w3.org/2000/svg">
<path d="M13.5 15.5228L6.42015 22.6027C6.15526 22.8676 5.81812 23 5.40875 23C4.99937 23 4.66223 22.8676 4.39734 22.6027C4.13245 22.3378 4 22.0006 4 21.5913C4 21.1819 4.13245 20.8447 4.39734 20.5798L11.4772 13.5L4.39734 6.42015C4.13245 6.15526 4 5.81812 4 5.40875C4 4.99937 4.13245 4.66223 4.39734 4.39734C4.66223 4.13245 4.99937 4 5.40875 4C5.81812 4 6.15526 4.13245 6.42015 4.39734L13.5 11.4772L20.5798 4.39734C20.8447 4.13245 21.1819 4 21.5913 4C22.0006 4 22.3378 4.13245 22.6027 4.39734C22.8676 4.66223 23 4.99937 23 5.40875C23 5.81812 22.8676 6.15526 22.6027 6.42015L15.5228 13.5L22.6027 20.5798C22.8676 20.8447 23 21.1819 23 21.5913C23 22.0006 22.8676 22.3378 22.6027 22.6027C22.3378 22.8676 22.0006 23 21.5913 23C21.1819 23 20.8447 22.8676 20.5798 22.6027L13.5 15.5228Z" fill="#DDDDDD"/>
</svg>
