<svg width="16" height="16" viewBox="0 0 16 16" fill="none" xmlns="http://www.w3.org/2000/svg">
<path d="M12.6719 1.68061H3.32812C2.76562 1.68061 2.29167 1.87045 1.90625 2.25013C1.52083 2.62981 1.32812 3.10571 1.32812 3.67783V14.3193C1.32812 14.4545 1.36198 14.5819 1.42969 14.7016C1.4974 14.8212 1.59896 14.8966 1.73438 14.9278C1.76562 14.959 1.8099 14.9772 1.86719 14.9824C1.92448 14.9876 1.96875 14.9902 2 14.9902C2.10417 14.9902 2.1901 14.9746 2.25781 14.9434C2.32552 14.9122 2.39583 14.8602 2.46875 14.7874L4.9375 12.3221H12.6719C13.2344 12.3221 13.7083 12.1322 14.0938 11.7525C14.4792 11.3729 14.6719 10.897 14.6719 10.3248V3.67783C14.6719 3.10571 14.4792 2.62981 14.0938 2.25013C13.7083 1.87045 13.2344 1.68061 12.6719 1.68061ZM13.3281 10.3248C13.3281 10.5329 13.2682 10.6967 13.1484 10.8163C13.0286 10.936 12.8698 10.9958 12.6719 10.9958H4.67188C4.56771 10.9958 4.47917 11.0114 4.40625 11.0426C4.33333 11.0738 4.26562 11.1258 4.20312 11.1986L2.67188 12.7278V3.67783C2.67188 3.46979 2.73177 3.30595 2.85156 3.18633C2.97135 3.0667 3.13021 3.00689 3.32812 3.00689H12.6719C12.8698 3.00689 13.0286 3.0667 13.1484 3.18633C13.2682 3.30595 13.3281 3.46979 13.3281 3.67783V10.3248Z" fill="#E54E53"/>
</svg>
