<svg width="16" height="16" viewBox="0 0 16 16" fill="none" xmlns="http://www.w3.org/2000/svg">
<g opacity="0.8">
<path d="M12.6719 2.33688H11.3281V1.68154C11.3281 1.4735 11.2682 1.30966 11.1484 1.19004C11.0286 1.07041 10.8698 1.0106 10.6719 1.0106C10.4635 1.0106 10.2995 1.07041 10.1797 1.19004C10.0599 1.30966 10 1.4735 10 1.68154V2.33688H6V1.68154C6 1.4735 5.9401 1.30966 5.82031 1.19004C5.70052 1.07041 5.53646 1.0106 5.32812 1.0106C5.13021 1.0106 4.97135 1.07041 4.85156 1.19004C4.73177 1.30966 4.67188 1.4735 4.67188 1.68154V2.33688H3.32812C2.76562 2.33688 2.29167 2.52932 1.90625 2.9142C1.52083 3.29908 1.32812 3.77238 1.32812 4.3341V13.6649C1.32812 14.2266 1.52083 14.6999 1.90625 15.0848C2.29167 15.4697 2.76562 15.6621 3.32812 15.6621H12.6719C13.2344 15.6621 13.7083 15.4697 14.0938 15.0848C14.4792 14.6999 14.6719 14.2266 14.6719 13.6649V4.3341C14.6719 3.77238 14.4792 3.29908 14.0938 2.9142C13.7083 2.52932 13.2344 2.33688 12.6719 2.33688ZM3.32812 3.67876H4.67188V4.3341C4.67188 4.54215 4.73177 4.70598 4.85156 4.82561C4.97135 4.94523 5.13021 5.00505 5.32812 5.00505C5.53646 5.00505 5.70052 4.94523 5.82031 4.82561C5.9401 4.70598 6 4.54215 6 4.3341V3.67876H10V4.3341C10 4.54215 10.0599 4.70598 10.1797 4.82561C10.2995 4.94523 10.4635 5.00505 10.6719 5.00505C10.8698 5.00505 11.0286 4.94523 11.1484 4.82561C11.2682 4.70598 11.3281 4.54215 11.3281 4.3341V3.67876H12.6719C12.8698 3.67876 13.0286 3.73858 13.1484 3.8582C13.2682 3.97783 13.3281 4.13646 13.3281 4.3341V6.33133H2.67188V4.3341C2.67188 4.13646 2.73177 3.97783 2.85156 3.8582C2.97135 3.73858 3.13021 3.67876 3.32812 3.67876ZM12.6719 14.3202H3.32812C3.13021 14.3202 2.97135 14.2604 2.85156 14.1408C2.73177 14.0212 2.67188 13.8625 2.67188 13.6649V7.67321H13.3281V13.6649C13.3281 13.8625 13.2682 14.0212 13.1484 14.1408C13.0286 14.2604 12.8698 14.3202 12.6719 14.3202Z" fill="#E54E53"/>
</g>
</svg>
