<svg width="23" height="22" viewBox="0 0 23 22" fill="none" xmlns="http://www.w3.org/2000/svg">
<g opacity="0.8">
<rect x="0.25" width="22" height="22" rx="11" fill="#D54C3F"/>
<path d="M18.3984 11.1699C18.3984 15.3154 15.5596 18.2656 11.3672 18.2656C7.34766 18.2656 4.10156 15.0195 4.10156 11C4.10156 6.98047 7.34766 3.73438 11.3672 3.73438C13.3242 3.73438 14.9707 4.45215 16.2393 5.63574L14.2617 7.53711C11.6748 5.04102 6.86426 6.91602 6.86426 11C6.86426 13.5342 8.88867 15.5879 11.3672 15.5879C14.2441 15.5879 15.3223 13.5254 15.4922 12.4561H11.3672V9.95703H18.2842C18.3516 10.3291 18.3984 10.6865 18.3984 11.1699Z" fill="white"/>
</g>
</svg>
