<svg width="23" height="22" viewBox="0 0 23 22" fill="none" xmlns="http://www.w3.org/2000/svg">
<g opacity="0.8">
<rect x="0.25" width="22" height="22" rx="11" fill="#168DE2"/>
<path d="M11.25 5.375C8.14453 5.375 5.625 7.89453 5.625 11C5.625 14.1055 8.14453 16.625 11.25 16.625C11.7686 16.625 12.1875 17.0439 12.1875 17.5625C12.1875 18.0811 11.7686 18.5 11.25 18.5C7.10742 18.5 3.75 15.1426 3.75 11C3.75 6.85742 7.10742 3.5 11.25 3.5C15.3926 3.5 18.75 6.85742 18.75 11V11.9375C18.75 13.4902 17.4902 14.75 15.9375 14.75C15.0791 14.75 14.3086 14.3633 13.793 13.7568C13.125 14.3721 12.2314 14.75 11.25 14.75C9.17871 14.75 7.5 13.0713 7.5 11C7.5 8.92871 9.17871 7.25 11.25 7.25C12.0674 7.25 12.8232 7.51074 13.4385 7.95605C13.6055 7.80957 13.8223 7.71875 14.0625 7.71875C14.5811 7.71875 15 8.1377 15 8.65625V11V11.9375C15 12.4561 15.4189 12.875 15.9375 12.875C16.4561 12.875 16.875 12.4561 16.875 11.9375V11C16.875 7.89453 14.3555 5.375 11.25 5.375ZM13.125 11C13.125 10.5027 12.9275 10.0258 12.5758 9.67417C12.2242 9.32254 11.7473 9.125 11.25 9.125C10.7527 9.125 10.2758 9.32254 9.92417 9.67417C9.57254 10.0258 9.375 10.5027 9.375 11C9.375 11.4973 9.57254 11.9742 9.92417 12.3258C10.2758 12.6775 10.7527 12.875 11.25 12.875C11.7473 12.875 12.2242 12.6775 12.5758 12.3258C12.9275 11.9742 13.125 11.4973 13.125 11Z" fill="#FF9E00"/>
</g>
</svg>
