<svg width="25" height="34" viewBox="0 0 25 34" fill="none" xmlns="http://www.w3.org/2000/svg">
<g clip-path="url(#clip0_35_13533)">
<path fill-rule="evenodd" clip-rule="evenodd" d="M19.7261 11.0157L5.37591 16.55C4.39682 16.9428 4.40188 17.4896 5.19771 17.7326L8.77588 18.8504L10.1458 23.0482C10.3118 23.5079 10.2298 23.6901 10.7128 23.6901C11.0854 23.6901 11.2494 23.52 11.458 23.3175C11.5896 23.189 12.3723 22.4265 13.2471 21.5771L16.97 24.328C17.6545 24.7057 18.1496 24.5103 18.3197 23.6922L20.7639 12.176C21.014 11.1736 20.3812 10.718 19.7261 11.0157ZM9.33782 18.5932L17.4044 13.5044C17.8074 13.2594 18.1769 13.391 17.8732 13.6603L10.9659 19.8923L10.6976 22.7607L9.33782 18.5932Z" fill="#289FD9"/>
</g>
<defs>
<clipPath id="clip0_35_13533">
<rect width="24.3" height="32.39" fill="white" transform="translate(0.569824 0.804688)"/>
</clipPath>
</defs>
</svg>
