<svg width="25" height="34" viewBox="0 0 25 34" fill="none" xmlns="http://www.w3.org/2000/svg">
<g clip-path="url(#clip0_35_13523)">
<path fill-rule="evenodd" clip-rule="evenodd" d="M13.6245 21.2941C13.6245 21.2941 13.9161 21.2617 14.066 21.0977C14.2037 20.9478 14.1996 20.6653 14.1996 20.6653C14.1996 20.6653 14.1794 19.345 14.7828 19.1506C15.3782 18.9583 16.1406 20.4264 16.9496 20.9914C17.5621 21.4186 18.0269 21.3255 18.0269 21.3255L20.1906 21.2951C20.1906 21.2951 21.3216 21.2232 20.7849 20.3191C20.7414 20.2451 20.4731 19.6498 19.1771 18.4257C17.8203 17.1459 18.0026 17.3534 19.6357 15.1391C20.631 13.7905 21.0289 12.9673 20.9044 12.6149C20.7859 12.2788 20.0539 12.3679 20.0539 12.3679L17.6178 12.3831C17.6178 12.3831 17.4376 12.3578 17.304 12.4398C17.1723 12.5198 17.0893 12.7051 17.0893 12.7051C17.0893 12.7051 16.7025 13.7479 16.1882 14.6359C15.1048 16.509 14.6704 16.6082 14.4933 16.4908C14.0812 16.2205 14.1844 15.4024 14.1844 14.8222C14.1844 13.0068 14.4548 12.2504 13.6569 12.055C13.3917 11.9892 13.1973 11.9467 12.5199 11.9396C11.6512 11.9305 10.9151 11.9426 10.4989 12.1502C10.2215 12.2879 10.0079 12.5957 10.1385 12.6129C10.2995 12.6352 10.664 12.7132 10.8574 12.9805C11.1064 13.3257 11.0973 14.1013 11.0973 14.1013C11.0973 14.1013 11.2411 16.2377 10.7632 16.5019C10.4341 16.6842 9.98358 16.3126 9.01664 14.6136C8.52153 13.7439 8.14691 12.781 8.14691 12.781C8.14691 12.781 8.07603 12.6028 7.94643 12.5056C7.79051 12.3892 7.57181 12.3527 7.57181 12.3527L5.25723 12.3679C5.25723 12.3679 4.90994 12.378 4.78237 12.5309C4.66897 12.6676 4.77326 12.9501 4.77326 12.9501C4.77326 12.9501 6.58563 17.2613 8.63797 19.4331C10.5192 21.4247 12.6556 21.2941 12.6556 21.2941H13.6245Z" fill="#4A76A8"/>
</g>
<defs>
<clipPath id="clip0_35_13523">
<rect width="24.3" height="32.39" fill="white" transform="translate(0.679688 0.804688)"/>
</clipPath>
</defs>
</svg>
