<svg width="25" height="34" viewBox="0 0 25 34" fill="none" xmlns="http://www.w3.org/2000/svg">
<g clip-path="url(#clip0_35_13538)">
<path fill-rule="evenodd" clip-rule="evenodd" d="M12.3499 11.4677C11.8967 11.4682 11.4623 11.6485 11.1419 11.9689C10.8215 12.2893 10.6413 12.7237 10.6408 13.1768C10.6408 14.1184 11.4072 14.8849 12.3499 14.8849C12.8028 14.8843 13.2371 14.7042 13.5574 14.3841C13.8778 14.0639 14.0582 13.6297 14.059 13.1768C14.0584 12.7237 13.8782 12.2893 13.5578 11.9689C13.2374 11.6485 12.803 11.4682 12.3499 11.4677ZM12.3499 17.3027C11.2558 17.3017 10.2069 16.8666 9.4332 16.0931C8.65951 15.3196 8.22425 14.2708 8.22291 13.1768C8.22371 12.0824 8.65874 11.0331 9.43249 10.2591C10.2062 9.48519 11.2555 9.0499 12.3499 9.04883C13.4444 9.04963 14.4939 9.4848 15.2679 10.2588C16.0418 11.0327 16.477 12.0822 16.4778 13.1768C16.4765 14.271 16.0411 15.32 15.2672 16.0935C14.4933 16.867 13.4441 17.3019 12.3499 17.3027ZM10.6802 20.6693C9.83119 20.4759 9.02091 20.1404 8.28366 19.677C8.01217 19.5063 7.81965 19.2346 7.74844 18.9219C7.67724 18.6091 7.73318 18.2809 7.90397 18.0095C8.07476 17.738 8.34639 17.5454 8.65913 17.4742C8.97186 17.403 9.30007 17.459 9.57156 17.6298C10.4047 18.1509 11.3676 18.4273 12.3504 18.4273C13.3331 18.4273 14.296 18.1509 15.1292 17.6298C15.4007 17.459 15.7289 17.403 16.0416 17.4742C16.3543 17.5454 16.626 17.738 16.7968 18.0095C16.9675 18.2809 17.0235 18.6091 16.9523 18.9219C16.8811 19.2346 16.6886 19.5063 16.4171 19.677C15.6797 20.1402 14.8695 20.4757 14.0205 20.6693L16.328 22.9778C16.5546 23.2047 16.6818 23.5123 16.6816 23.8331C16.6814 24.1538 16.5539 24.4613 16.327 24.6879C16.1 24.9145 15.7924 25.0418 15.4717 25.0416C15.151 25.0414 14.8435 24.9138 14.6168 24.6869L12.3509 22.4189L10.0829 24.6869C9.85609 24.9137 9.54852 25.0411 9.22781 25.0411C8.9071 25.0411 8.59953 24.9137 8.37276 24.6869C8.14598 24.4601 8.01858 24.1525 8.01858 23.8318C8.01858 23.5111 8.14598 23.2036 8.37276 22.9768L10.6802 20.6693Z" fill="#F2720C"/>
</g>
<defs>
<clipPath id="clip0_35_13538">
<rect width="24.3" height="32.39" fill="white" transform="translate(0.529785 0.804688)"/>
</clipPath>
</defs>
</svg>
