<svg width="25" height="34" viewBox="0 0 25 34" fill="none" xmlns="http://www.w3.org/2000/svg">
<g clip-path="url(#clip0_35_13554)">
<path fill-rule="evenodd" clip-rule="evenodd" d="M17.1285 15.6117C16.0097 14.9678 14.6033 14.5658 13.0532 14.4797L13.8713 12.0568L16.0805 12.7018C16.0805 13.6768 16.8703 14.4656 17.8453 14.4656C18.8214 14.4656 19.6253 13.6768 19.6253 12.7018C19.6253 11.7136 18.8214 10.9238 17.8453 10.9238C17.2287 10.9238 16.683 11.2539 16.3681 11.7267L13.6849 10.9532C13.6237 10.933 13.5591 10.9252 13.4949 10.9301C13.4306 10.935 13.3679 10.9526 13.3105 10.9819C13.2531 11.0112 13.202 11.0515 13.1603 11.1007C13.1185 11.1498 13.087 11.2067 13.0673 11.2681L11.991 14.4797C10.4561 14.5658 9.04973 14.9678 7.93091 15.6127C7.74109 15.4116 7.51186 15.2518 7.25751 15.1433C7.00317 15.0348 6.72919 14.9798 6.45266 14.9819C6.18706 14.9815 5.92399 15.0335 5.6785 15.1349C5.43301 15.2363 5.20993 15.3851 5.02203 15.5728C4.83413 15.7606 4.68509 15.9835 4.58345 16.2289C4.4818 16.4743 4.42955 16.7373 4.42969 17.0029C4.42969 17.7623 4.86 18.4234 5.47763 18.7667C5.44826 18.9388 5.43409 19.1109 5.43409 19.283C5.43409 21.9358 8.61941 24.0863 12.5368 24.0863C16.44 24.0863 19.6243 21.9358 19.6243 19.283C19.6243 19.1109 19.6111 18.9388 19.5818 18.7667C19.8995 18.5948 20.1648 18.3401 20.3493 18.0295C20.5338 17.7189 20.6307 17.3641 20.6297 17.0029C20.6298 16.7373 20.5776 16.4743 20.4759 16.2289C20.3743 15.9835 20.2253 15.7606 20.0373 15.5728C19.8494 15.3851 19.6264 15.2363 19.3809 15.1349C19.1354 15.0335 18.8723 14.9815 18.6067 14.9819C18.0185 14.9819 17.5021 15.2239 17.1285 15.6117ZM9.99743 17.5051C10.2672 17.5061 10.5257 17.6138 10.7165 17.8046C10.9073 17.9954 11.0149 18.2538 11.016 18.5237C11.0151 18.6564 10.988 18.7877 10.9363 18.91C10.8846 19.0324 10.8093 19.1433 10.7147 19.2365C10.6201 19.3296 10.508 19.4033 10.385 19.4531C10.2619 19.503 10.1302 19.5281 9.99743 19.527C9.86539 19.5278 9.7345 19.5024 9.61234 19.4523C9.49019 19.4022 9.37919 19.3283 9.28577 19.235C9.19236 19.1417 9.11838 19.0308 9.06813 18.9087C9.01788 18.7866 8.99235 18.6557 8.99303 18.5237C8.99303 17.9637 9.43751 17.5051 9.99743 17.5051ZM15.062 17.5051C14.9291 17.5059 14.7977 17.5329 14.6752 17.5845C14.5528 17.6362 14.4418 17.7114 14.3485 17.806C14.2552 17.9007 14.1815 18.0127 14.1316 18.1359C14.0816 18.259 14.0565 18.3908 14.0576 18.5237C14.0576 19.0826 14.5031 19.527 15.062 19.527C15.1947 19.5281 15.3264 19.503 15.4495 19.4531C15.5726 19.4033 15.6846 19.3296 15.7792 19.2365C15.8738 19.1433 15.9491 19.0324 16.0008 18.91C16.0525 18.7877 16.0796 18.6564 16.0805 18.5237C16.0795 18.2538 15.9718 17.9954 15.781 17.8046C15.5902 17.6138 15.3318 17.5061 15.062 17.5051ZM9.6957 21.147C9.64272 21.1074 9.5983 21.0575 9.56512 21.0003C9.53194 20.9431 9.51069 20.8797 9.50265 20.8141C9.49461 20.7484 9.49994 20.6818 9.51833 20.6183C9.53672 20.5547 9.56778 20.4956 9.60964 20.4444C9.76759 20.2155 10.0977 20.1862 10.3123 20.3583C10.8864 20.8038 11.8047 21.0468 12.5368 21.0468C13.2546 21.0468 14.173 20.8038 14.7612 20.3583C14.8125 20.3164 14.8716 20.2854 14.9352 20.267C14.9987 20.2486 15.0653 20.2433 15.1309 20.2513C15.1966 20.2594 15.26 20.2806 15.3172 20.3138C15.3744 20.347 15.4243 20.3914 15.4639 20.4444C15.5453 20.5491 15.5819 20.6818 15.5657 20.8134C15.5496 20.9451 15.4821 21.065 15.3779 21.147C14.6316 21.7343 13.4693 22.0654 12.5368 22.0654C11.5901 22.0654 10.4409 21.7353 9.6957 21.147ZM17.8463 13.4622C17.4302 13.4622 17.0849 13.1179 17.0849 12.7028C17.0849 12.2715 17.4292 11.9414 17.8453 11.9414C18.2615 11.9414 18.6067 12.2715 18.6067 12.7018C18.6067 13.1169 18.2625 13.4612 17.8453 13.4612L17.8463 13.4622Z" fill="#FF4500"/>
</g>
<defs>
<clipPath id="clip0_35_13554">
<rect width="24.3" height="32.39" fill="white" transform="translate(0.379883 0.804688)"/>
</clipPath>
</defs>
</svg>
