<svg width="27" height="27" viewBox="0 0 27 27" fill="none" xmlns="http://www.w3.org/2000/svg">
<path d="M23.7031 21.7891L20 18.1094C20.5938 17.3594 21.0742 16.5 21.4414 15.5312C21.8086 14.5625 21.9922 13.5547 21.9922 12.5078C21.9922 11.2578 21.7578 10.0859 21.2891 8.99219C20.8203 7.89844 20.1797 6.94531 19.3672 6.13281C18.5547 5.32031 17.6016 4.67969 16.5078 4.21094C15.4141 3.74219 14.2422 3.50781 12.9922 3.50781C11.7422 3.50781 10.5703 3.74219 9.47656 4.21094C8.38281 4.67969 7.42969 5.32031 6.61719 6.13281C5.80469 6.94531 5.16406 7.89844 4.69531 8.99219C4.22656 10.0859 3.99219 11.2578 3.99219 12.5078C3.99219 13.7578 4.22656 14.9297 4.69531 16.0234C5.16406 17.1172 5.80469 18.0703 6.61719 18.8828C7.42969 19.6953 8.38281 20.3359 9.47656 20.8047C10.5703 21.2734 11.7422 21.5078 12.9922 21.5078C14.0547 21.5078 15.0664 21.3359 16.0273 20.9922C16.9883 20.6484 17.8438 20.1484 18.5938 19.4922L22.2969 23.1953C22.4062 23.3047 22.5273 23.3828 22.6602 23.4297C22.793 23.4766 22.9062 23.5 23 23.5C23.0938 23.5 23.207 23.4766 23.3398 23.4297C23.4727 23.3828 23.5938 23.3047 23.7031 23.1953C23.9062 22.9922 24.0078 22.7578 24.0078 22.4922C24.0078 22.2266 23.9062 21.9922 23.7031 21.7891ZM6.00781 12.5078C6.00781 11.5234 6.1875 10.6094 6.54688 9.76562C6.90625 8.90625 7.40234 8.16406 8.03516 7.53906C8.66797 6.91406 9.40625 6.41406 10.25 6.03906C11.1094 5.67969 12.0234 5.5 12.9922 5.5C13.9766 5.5 14.8906 5.67969 15.7344 6.03906C16.5938 6.41406 17.3359 6.91406 17.9609 7.53906C18.5859 8.16406 19.0859 8.90625 19.4609 9.76562C19.8203 10.6094 20 11.5234 20 12.5078C20 13.4453 19.8164 14.3438 19.4492 15.2031C19.082 16.0625 18.6016 16.7969 18.0078 17.4062C17.3516 18.0469 16.6055 18.5391 15.7695 18.8828C14.9336 19.2266 14.0469 19.3984 13.1094 19.3984C12.1094 19.4297 11.1719 19.2656 10.2969 18.9062C9.4375 18.5625 8.6875 18.0781 8.04688 17.4531C7.40625 16.8281 6.90625 16.0859 6.54688 15.2266C6.1875 14.3828 6.00781 13.4766 6.00781 12.5078Z" fill="black"/>
</svg>
