<svg width="32" height="32" viewBox="0 0 32 32" fill="none" xmlns="http://www.w3.org/2000/svg">
<path fill-rule="evenodd" clip-rule="evenodd" d="M2.89511 2.89608C3.8953 1.89589 5.25185 1.33398 6.66634 1.33398H25.333C26.7475 1.33398 28.104 1.89589 29.1042 2.89608C30.1044 3.89628 30.6663 5.25283 30.6663 6.66732V25.334C30.6663 26.7485 30.1044 28.105 29.1042 29.1052C28.104 30.1054 26.7475 30.6673 25.333 30.6673H6.66634C5.25185 30.6673 3.8953 30.1054 2.89511 29.1052C1.89491 28.105 1.33301 26.7485 1.33301 25.334V6.66732C1.33301 5.25283 1.89491 3.89628 2.89511 2.89608ZM23.5421 23.5431C25.5425 21.5427 26.6663 18.8296 26.6663 16.0007C26.6663 13.1717 25.5425 10.4586 23.5421 8.45818C21.5418 6.45779 18.8287 5.33398 15.9997 5.33398C13.1707 5.33398 10.4576 6.45779 8.4572 8.45818C6.45681 10.4586 5.33301 13.1717 5.33301 16.0007C5.33301 18.8296 6.45681 21.5427 8.4572 23.5431C10.4576 25.5435 13.1707 26.6673 15.9997 26.6673C18.8287 26.6673 21.5418 25.5435 23.5421 23.5431Z" fill="#151516"/>
<path d="M8.70901 15.686C8.70901 15.5873 8.77434 15.4927 8.86634 15.4593L20.817 10.9033C20.8585 10.8888 20.9031 10.8854 20.9463 10.8933C20.9896 10.9013 21.03 10.9203 21.0637 10.9487C21.1303 11.006 21.1597 11.1007 21.1397 11.1873L18.7557 21.2113C18.7467 21.2504 18.7281 21.2866 18.7016 21.3167C18.675 21.3467 18.6414 21.3696 18.6037 21.3833C18.5663 21.3975 18.526 21.4021 18.4865 21.3967C18.4469 21.3914 18.4093 21.3762 18.377 21.3527L13.877 17.7287L17.893 14.126C17.9187 14.1023 17.9352 14.0702 17.9393 14.0355C17.9435 14.0008 17.9351 13.9657 17.9157 13.9367C17.8957 13.9078 17.8659 13.8871 17.8319 13.8782C17.7979 13.8694 17.7619 13.8731 17.7303 13.8887L11.7637 16.97L8.86634 15.9127C8.82101 15.8941 8.78203 15.8628 8.75411 15.8226C8.72618 15.7824 8.71052 15.7349 8.70901 15.686Z" fill="white"/>
</svg>
