<svg width="23" height="22" viewBox="0 0 23 22" fill="none" xmlns="http://www.w3.org/2000/svg">
<g opacity="0.8">
<rect x="0.25" width="22" height="22" rx="11" fill="#239CD7"/>
<path d="M11.25 3.73438C7.23633 3.73438 3.98438 6.98633 3.98438 11C3.98438 15.0137 7.23633 18.2656 11.25 18.2656C15.2637 18.2656 18.5156 15.0137 18.5156 11C18.5156 6.98633 15.2637 3.73438 11.25 3.73438ZM14.6191 8.67676C14.5107 9.8252 14.0361 12.6143 13.7959 13.9004C13.6934 14.4453 13.4941 14.627 13.3008 14.6445C12.8789 14.6826 12.5596 14.3662 12.1494 14.0967C11.5107 13.6777 11.1475 13.417 10.5293 13.0068C9.81152 12.5352 10.2773 12.2744 10.6846 11.8496C10.793 11.7383 12.6504 10.0479 12.6855 9.89551C12.6914 9.875 12.6943 9.80469 12.6504 9.7666C12.6064 9.72852 12.5449 9.74316 12.501 9.75195C12.4365 9.76562 11.415 10.4404 9.43652 11.7764C9.14746 11.9756 8.88477 12.0723 8.64844 12.0664C8.3877 12.0605 7.88965 11.9199 7.51758 11.7998C7.06348 11.6533 6.7002 11.5742 6.73242 11.3223C6.74805 11.1914 6.92871 11.0576 7.27441 10.9209C9.3916 9.99902 10.8037 9.39062 11.5107 9.0957C13.5293 8.25781 13.9482 8.11133 14.2207 8.10547C14.2822 8.10547 14.4141 8.12012 14.502 8.19043C14.5593 8.24086 14.5959 8.31083 14.6045 8.38672C14.6203 8.48253 14.6252 8.57984 14.6191 8.67676Z" fill="white"/>
</g>
</svg>
