<svg width="16" height="16" viewBox="0 0 16 16" fill="none" xmlns="http://www.w3.org/2000/svg">
<g opacity="0.8">
<path d="M10.6719 9.6695H5.32812C4.86979 9.6695 4.4375 9.75272 4.03125 9.91916C3.625 10.096 3.27083 10.3326 2.96875 10.6291C2.66667 10.9256 2.43229 11.2766 2.26562 11.6823C2.08854 12.088 2 12.5249 2 12.993V14.3193C2 14.5273 2.0599 14.6912 2.17969 14.8108C2.29948 14.9304 2.46354 14.9902 2.67188 14.9902C2.86979 14.9902 3.02865 14.9304 3.14844 14.8108C3.26823 14.6912 3.32812 14.5273 3.32812 14.3193V12.993C3.32812 12.4313 3.52083 11.958 3.90625 11.5731C4.29167 11.1882 4.76562 10.9958 5.32812 10.9958H10.6719C11.2344 10.9958 11.7083 11.1882 12.0938 11.5731C12.4792 11.958 12.6719 12.4313 12.6719 12.993V14.3193C12.6719 14.5273 12.7318 14.6912 12.8516 14.8108C12.9714 14.9304 13.1302 14.9902 13.3281 14.9902C13.5365 14.9902 13.7005 14.9304 13.8203 14.8108C13.9401 14.6912 14 14.5273 14 14.3193V12.993C14 12.5249 13.9115 12.088 13.7344 11.6823C13.5677 11.2766 13.3333 10.9256 13.0312 10.6291C12.7292 10.3326 12.375 10.096 11.9688 9.91916C11.5625 9.75272 11.1302 9.6695 10.6719 9.6695ZM8 8.32762C8.46875 8.32762 8.90625 8.2444 9.3125 8.07797C9.71875 7.90113 10.0703 7.66448 10.3672 7.36802C10.6641 7.07155 10.901 6.72048 11.0781 6.31479C11.2448 5.90911 11.3281 5.47221 11.3281 5.00411C11.3281 4.53601 11.2448 4.09912 11.0781 3.69343C10.901 3.28775 10.6641 2.93667 10.3672 2.64021C10.0703 2.34375 9.71875 2.1071 9.3125 1.93026C8.90625 1.76383 8.46875 1.68061 8 1.68061C7.53125 1.68061 7.09375 1.76383 6.6875 1.93026C6.28125 2.1071 5.92969 2.34375 5.63281 2.64021C5.33594 2.93667 5.09896 3.28775 4.92188 3.69343C4.75521 4.09912 4.67188 4.53601 4.67188 5.00411C4.67188 5.47221 4.75521 5.90911 4.92188 6.31479C5.09896 6.72048 5.33594 7.07155 5.63281 7.36802C5.92969 7.66448 6.28125 7.90113 6.6875 8.07797C7.09375 8.2444 7.53125 8.32762 8 8.32762ZM8 3.00689C8.5625 3.00689 9.03646 3.19933 9.42188 3.58421C9.80729 3.96909 10 4.44239 10 5.00411C10 5.56583 9.80729 6.03913 9.42188 6.42402C9.03646 6.8089 8.5625 7.00134 8 7.00134C7.4375 7.00134 6.96354 6.8089 6.57812 6.42402C6.19271 6.03913 6 5.56583 6 5.00411C6 4.44239 6.19271 3.96909 6.57812 3.58421C6.96354 3.19933 7.4375 3.00689 8 3.00689Z" fill="#E54E53"/>
</g>
</svg>
