<svg width="23" height="22" viewBox="0 0 23 22" fill="none" xmlns="http://www.w3.org/2000/svg">
<g opacity="0.8">
<rect x="0.25" width="22" height="22" rx="11" fill="#4C75A3"/>
<path d="M5.61035 5.36035C4.6875 6.2832 4.6875 7.76855 4.6875 10.7363V11.2637C4.6875 14.2314 4.6875 15.7168 5.61035 16.6396C6.5332 17.5625 8.01855 17.5625 10.9863 17.5625H11.5137C14.4814 17.5625 15.9668 17.5625 16.8896 16.6396C17.8125 15.7168 17.8125 14.2314 17.8125 11.2637V10.7363C17.8125 7.76855 17.8125 6.2832 16.8896 5.36035C15.9668 4.4375 14.4814 4.4375 11.5137 4.4375H10.9863C8.01855 4.4375 6.5332 4.4375 5.61035 5.36035ZM6.90234 8.43066H8.39941C8.44922 10.9355 9.55371 11.9961 10.4297 12.2129V8.43066H11.8418V10.5898C12.7061 10.4961 13.6113 9.51172 13.9189 8.43066H15.3311C15.2139 8.99023 14.9854 9.52344 14.6543 9.99219C14.3232 10.4609 13.9014 10.8564 13.4092 11.1523C13.957 11.4248 14.4404 11.8086 14.8271 12.2832C15.2168 12.7549 15.498 13.3027 15.6592 13.8916H14.1035C13.9629 13.3818 13.6699 12.9219 13.2686 12.5762C12.8643 12.2275 12.3691 12.0078 11.8418 11.9404V13.8916H11.6719C8.68066 13.8916 6.97266 11.8408 6.90234 8.43066Z" fill="white"/>
</g>
</svg>
