<svg width="32" height="32" viewBox="0 0 32 32" fill="none" xmlns="http://www.w3.org/2000/svg">
<g clip-path="url(#clip0_35_13364)">
<path d="M12.652 0.00595313L13.624 0.00195312H18.376L19.3493 0.00595313L20.568 0.0192865L21.1453 0.0286198L21.7027 0.0432865L22.24 0.0619531L22.7573 0.0832865L23.256 0.111286L23.736 0.14462L24.196 0.18462L24.64 0.22862C26.96 0.489953 28.5507 1.04995 29.7507 2.24995C30.9507 3.44995 31.5107 5.03929 31.772 7.36062L31.8173 7.80462L31.856 8.26595L31.8893 8.74595L31.916 9.24329L31.9493 10.0273L31.9653 10.574L31.9827 11.4326L31.9947 12.6526L32 13.9593L31.9987 18.3766L31.9947 19.35L31.9813 20.5686L31.972 21.146L31.9573 21.7033L31.9387 22.2406L31.9173 22.758L31.8893 23.2566L31.856 23.7366L31.816 24.1966L31.772 24.6406C31.5107 26.9606 30.9507 28.5513 29.7507 29.7513C28.5507 30.9513 26.9613 31.5113 24.64 31.7726L24.196 31.818L23.7347 31.8566L23.2547 31.89L22.7573 31.9166L21.9733 31.95L21.4267 31.966L20.568 31.9833L19.348 31.9953L18.0413 32.0006L13.624 31.9993L12.6507 31.9953L11.432 31.982L10.8547 31.9726L10.2973 31.958L9.76 31.9393L9.24267 31.918L8.744 31.89L8.264 31.8566L7.804 31.8166L7.36 31.7726C5.04 31.5113 3.44933 30.9513 2.24933 29.7513C1.04933 28.5513 0.489333 26.962 0.228 24.6406L0.182667 24.1966L0.144 23.7353L0.110667 23.2553L0.084 22.758L0.0506667 21.974L0.0346667 21.4273L0.0173333 20.5686L0.00533333 19.3486L0 18.042L0.00133333 13.6246L0.00533333 12.6513L0.0186667 11.4326L0.028 10.8553L0.0426667 10.298L0.0613333 9.76062L0.0826667 9.24329L0.110667 8.74462L0.144 8.26462L0.184 7.80462L0.228 7.36062C0.489333 5.04062 1.04933 3.44995 2.24933 2.24995C3.44933 1.04995 5.03867 0.489953 7.36 0.22862L7.804 0.183286L8.26533 0.14462L8.74533 0.111286L9.24267 0.0846198L10.0267 0.0512865L10.5733 0.0352865L11.432 0.0179531L12.652 0.00595313ZM9.05333 9.73395H5.4C5.57333 18.054 9.73334 23.054 17.0267 23.054H17.44V18.294C20.12 18.5606 22.1467 20.5206 22.96 23.054H26.7467C25.7067 19.2673 22.9733 17.174 21.2667 16.374C22.9733 15.3873 25.3733 12.9873 25.9467 9.73395H22.5067C21.76 12.374 19.5467 14.774 17.44 15.0006V9.73395H14V18.9606C11.8667 18.4273 9.17333 15.8406 9.05333 9.73395Z" fill="#151516"/>
<path d="M9.05333 9.73395H5.4C5.57333 18.054 9.73334 23.054 17.0267 23.054H17.44V18.294C20.12 18.5606 22.1467 20.5206 22.96 23.054H26.7467C25.7067 19.2673 22.9733 17.174 21.2667 16.374C22.9733 15.3873 25.3733 12.9873 25.9467 9.73395H22.5067C21.76 12.374 19.5467 14.774 17.44 15.0006V9.73395H14V18.9606C11.8667 18.4273 9.17333 15.8406 9.05333 9.73395Z" fill="white"/>
</g>
<defs>
<clipPath id="clip0_35_13364">
<rect width="32" height="32" fill="white"/>
</clipPath>
</defs>
</svg>
