<svg width="30" height="30" viewBox="0 0 30 30" fill="none" xmlns="http://www.w3.org/2000/svg">
<path d="M15 1.875C13.0859 1.875 11.2988 2.23633 9.63867 2.95898C7.95898 3.66211 6.49902 4.63867 5.25879 5.88867C4.01855 7.13867 3.03711 8.59375 2.31445 10.2539C1.61133 11.9336 1.25977 13.7207 1.25977 15.6152C1.25977 17.5293 1.61133 19.3164 2.31445 20.9766C3.03711 22.6562 4.01855 24.1162 5.25879 25.3564C6.49902 26.5967 7.95898 27.5781 9.63867 28.3008C11.2988 29.0234 13.0859 29.3848 15 29.3848C16.9141 29.3848 18.7012 29.0234 20.3613 28.3008C22.041 27.5781 23.501 26.5967 24.7412 25.3564C25.9814 24.1162 26.9629 22.6562 27.6855 20.9766C28.3887 19.3164 28.7402 17.5293 28.7402 15.6152C28.7402 13.7207 28.3887 11.9336 27.6855 10.2539C26.9629 8.59375 25.9814 7.13867 24.7412 5.88867C23.501 4.63867 22.041 3.66211 20.3613 2.95898C18.7012 2.23633 16.9141 1.875 15 1.875ZM15 26.8652C13.4375 26.8652 11.9727 26.5723 10.6055 25.9863C9.23828 25.4004 8.04688 24.5996 7.03125 23.584C6.01562 22.5684 5.21484 21.377 4.62891 20.0098C4.04297 18.6426 3.75 17.1777 3.75 15.6152C3.75 14.0527 4.04297 12.5879 4.62891 11.2207C5.21484 9.85352 6.01562 8.66211 7.03125 7.64648C8.04688 6.63086 9.23828 5.83008 10.6055 5.24414C11.9727 4.6582 13.4375 4.36523 15 4.36523C16.5625 4.36523 18.0273 4.6582 19.3945 5.24414C20.7617 5.83008 21.9531 6.63086 22.9688 7.64648C23.9844 8.66211 24.7852 9.85352 25.3711 11.2207C25.957 12.5879 26.25 14.0527 26.25 15.6152C26.25 17.1777 25.957 18.6426 25.3711 20.0098C24.7852 21.377 23.9844 22.5684 22.9688 23.584C21.9531 24.5996 20.7617 25.4004 19.3945 25.9863C18.0273 26.5723 16.5625 26.8652 15 26.8652ZM15 9.375C14.6289 9.375 14.3262 9.4873 14.0918 9.71191C13.8574 9.93652 13.7402 10.2441 13.7402 10.6348V15.6152C13.7402 16.0059 13.8574 16.3135 14.0918 16.5381C14.3262 16.7627 14.6289 16.875 15 16.875C15.3711 16.875 15.6738 16.7627 15.9082 16.5381C16.1426 16.3135 16.2598 16.0059 16.2598 15.6152V10.6348C16.2598 10.2441 16.1426 9.93652 15.9082 9.71191C15.6738 9.4873 15.3711 9.375 15 9.375ZM14.1211 19.7461C14.0039 19.8828 13.9111 20.0146 13.8428 20.1416C13.7744 20.2686 13.7402 20.4297 13.7402 20.625C13.7402 20.8203 13.7744 20.9814 13.8428 21.1084C13.9111 21.2354 14.0039 21.3672 14.1211 21.5039C14.2578 21.6211 14.3896 21.7139 14.5166 21.7822C14.6436 21.8506 14.8047 21.8848 15 21.8848C15.1953 21.8848 15.3564 21.8506 15.4834 21.7822C15.6104 21.7139 15.7422 21.6211 15.8789 21.5039C15.9961 21.3672 16.0889 21.2158 16.1572 21.0498C16.2256 20.8838 16.2598 20.7422 16.2598 20.625C16.2598 20.5078 16.2256 20.3662 16.1572 20.2002C16.0889 20.0342 15.9961 19.8828 15.8789 19.7461C15.625 19.4922 15.332 19.3652 15 19.3652C14.668 19.3652 14.375 19.4922 14.1211 19.7461Z" fill="#E54E53"/>
</svg>
