<svg width="25" height="34" viewBox="0 0 25 34" fill="none" xmlns="http://www.w3.org/2000/svg">
<g clip-path="url(#clip0_35_13549)">
<path d="M21.8239 16.7614C21.8239 21.7409 17.7557 25.7767 12.7378 25.7767C11.1451 25.7767 9.6476 25.3697 8.34654 24.6548L3.31543 26.2536L4.95568 21.4169C4.12847 20.0581 3.65158 18.4644 3.65158 16.7614C3.65158 11.7819 7.71981 7.74609 12.7378 7.74609C17.7557 7.74609 21.8239 11.7819 21.8239 16.7614ZM12.7378 9.18081C8.52576 9.18081 5.09946 12.5808 5.09946 16.7604C5.09946 18.4189 5.64013 19.9538 6.55543 21.2053L5.60064 24.02L8.53588 23.0865C9.74177 23.8783 11.1866 24.34 12.7378 24.34C16.9498 24.34 20.3771 20.94 20.3771 16.7604C20.3771 12.5818 16.9498 9.18081 12.7378 9.18081ZM17.3264 18.837C17.2687 18.7449 17.1209 18.6892 16.8991 18.5788C16.6754 18.4685 15.5798 17.9329 15.3763 17.861C15.1728 17.7871 15.023 17.7506 14.8751 17.9713C14.7273 18.191 14.3011 18.6892 14.1704 18.837C14.0398 18.9848 13.9102 19.0031 13.6875 18.8937C13.4647 18.7834 12.7479 18.5485 11.8964 17.7962C11.2342 17.2099 10.7877 16.488 10.6571 16.2663C10.5275 16.0456 10.6439 15.9261 10.7543 15.8157L11.0894 15.4289C11.2008 15.3004 11.2372 15.2082 11.3122 15.0604C11.3861 14.9126 11.3496 14.784 11.2929 14.6736C11.2372 14.5633 10.7917 13.4758 10.6054 13.0334C10.4222 12.5899 10.2359 12.6638 10.1063 12.6638L9.68001 12.6456C9.68001 12.6456 9.28918 12.7003 9.08567 12.922C8.88216 13.1427 8.30604 13.6783 8.30604 14.7647C8.30604 15.8522 9.10389 16.9031 9.21527 17.051C9.32664 17.1978 10.7553 19.5012 13.0202 20.3861C15.2852 21.2711 15.2852 20.9754 15.6932 20.939C16.1003 20.9025 17.0105 20.4044 17.1958 19.889C17.3811 19.3716 17.3811 18.9292 17.3264 18.837Z" fill="#65BC54"/>
</g>
<defs>
<clipPath id="clip0_35_13549">
<rect width="24.3" height="32.39" fill="white" transform="translate(0.419922 0.804688)"/>
</clipPath>
</defs>
</svg>
