<svg width="25" height="34" viewBox="0 0 25 34" fill="none" xmlns="http://www.w3.org/2000/svg">
<g clip-path="url(#clip0_35_13544)">
<path fill-rule="evenodd" clip-rule="evenodd" d="M20.7293 12.4838C20.1228 12.7526 19.4795 12.9291 18.8207 13.0073C19.5146 12.5918 20.0338 11.9383 20.2818 11.1686C19.6292 11.5556 18.9152 11.8281 18.1707 11.9745C17.6703 11.4399 17.0074 11.0854 16.2848 10.9662C15.5623 10.847 14.8206 10.9697 14.175 11.3154C13.5294 11.661 13.016 12.2101 12.7145 12.8774C12.413 13.5448 12.3404 14.293 12.5078 15.0059C11.1863 14.9397 9.89341 14.5963 8.7132 13.998C7.53298 13.3997 6.49179 12.5599 5.65722 11.5331C5.23093 12.2644 5.10001 13.1309 5.29121 13.9556C5.4824 14.7802 5.98129 15.5007 6.68592 15.9698C6.15816 15.9534 5.64197 15.811 5.18033 15.5547V15.5962C5.18072 16.3635 5.44634 17.107 5.9322 17.7008C6.41806 18.2946 7.09427 18.7022 7.84625 18.8545C7.35683 18.9868 6.84373 19.0062 6.34572 18.9112C6.55795 19.5715 6.97127 20.1491 7.52788 20.563C8.08448 20.9769 8.75653 21.2065 9.45005 21.2197C8.76044 21.7609 7.97086 22.1609 7.1265 22.3967C6.28213 22.6324 5.39956 22.6994 4.5293 22.5936C6.04887 23.5707 7.81763 24.0895 9.6242 24.0881C15.7377 24.0881 19.0809 19.0256 19.0809 14.6344C19.0809 14.4896 19.0769 14.3458 19.0708 14.204C19.7216 13.7334 20.2832 13.1516 20.7293 12.4838Z" fill="#00ACED"/>
</g>
<defs>
<clipPath id="clip0_35_13544">
<rect width="24.3" height="32.39" fill="white" transform="translate(0.479492 0.804688)"/>
</clipPath>
</defs>
</svg>
