<svg width="32" height="32" viewBox="0 0 32 32" fill="none" xmlns="http://www.w3.org/2000/svg">
<path fill-rule="evenodd" clip-rule="evenodd" d="M6.66634 1.33398C5.25185 1.33398 3.8953 1.89589 2.89511 2.89608C1.89491 3.89628 1.33301 5.25283 1.33301 6.66732V25.334C1.33301 26.7485 1.89491 28.105 2.89511 29.1052C3.8953 30.1054 5.25185 30.6673 6.66634 30.6673H25.333C26.7475 30.6673 28.104 30.1054 29.1042 29.1052C30.1044 28.105 30.6663 26.7485 30.6663 25.334V6.66732C30.6663 5.25283 30.1044 3.89628 29.1042 2.89608C28.104 1.89589 26.7475 1.33398 25.333 1.33398H6.66634ZM5.99967 16.0007C5.99967 14.5687 6.06634 13.218 6.15567 12.0847C6.21234 11.2691 6.56213 10.5015 7.14048 9.92362C7.71883 9.34576 8.4867 8.99662 9.30234 8.94065C11.5316 8.79053 13.7654 8.71937 15.9997 8.72732C18.8757 8.72732 21.0823 8.82598 22.697 8.94065C23.5127 8.99662 24.2805 9.34576 24.8589 9.92362C25.4372 10.5015 25.787 11.2691 25.8437 12.0847C25.9317 13.218 25.9997 14.5687 25.9997 16.0007C25.9997 17.4847 25.9277 18.8807 25.8343 20.038C25.701 21.69 24.4423 22.9513 22.8183 23.0647C20.5485 23.212 18.2743 23.2818 15.9997 23.274C13.0957 23.274 10.813 23.178 9.18101 23.0647C7.55701 22.9513 6.29834 21.69 6.16501 20.038C6.05623 18.6949 6.00108 17.3481 5.99967 16.0007ZM13.5143 12.6073L19.181 16.0007L13.5143 19.3953V12.6073Z" fill="#151516"/>
<path fill-rule="evenodd" clip-rule="evenodd" d="M5.99967 16.0007C5.99967 14.5687 6.06634 13.218 6.15567 12.0847C6.21234 11.2691 6.56213 10.5015 7.14048 9.92362C7.71883 9.34576 8.4867 8.99662 9.30234 8.94065C11.5316 8.79053 13.7654 8.71937 15.9997 8.72732C18.8757 8.72732 21.0823 8.82598 22.697 8.94065C23.5127 8.99662 24.2805 9.34576 24.8589 9.92362C25.4372 10.5015 25.787 11.2691 25.8437 12.0847C25.9317 13.218 25.9997 14.5687 25.9997 16.0007C25.9997 17.4847 25.9277 18.8807 25.8343 20.038C25.701 21.69 24.4423 22.9513 22.8183 23.0647C20.5485 23.212 18.2743 23.2818 15.9997 23.274C13.0957 23.274 10.813 23.178 9.18101 23.0647C7.55701 22.9513 6.29834 21.69 6.16501 20.038C6.05623 18.6949 6.00108 17.3481 5.99967 16.0007ZM19.181 16.0007L13.5143 12.6073V19.3953L19.181 16.0007Z" fill="white"/>
</svg>
