<?xml version="1.0" encoding="utf-8"?><svg viewBox="0 0 211 38" xmlns="http://www.w3.org/2000/svg" xmlns:xlink="http://www.w3.org/1999/xlink"><style>:root>svg{display:none}:root>svg:target{display:block}</style><svg fill="none" viewBox="0 0 211 38" id="logo" xmlns="http://www.w3.org/2000/svg"><defs><clipPath id="aa"><rect rx="-.5" width="210" height="37" transform="translate(.5 .5)" fill="#fff" fill-opacity="0"/></clipPath></defs><rect rx="-.5" width="210" height="37" transform="translate(.5 .5)" fill="none"/><g clip-path="url(#aa)" fill-rule="evenodd"><path d="M78.3 10.85h-5.31V1.18c.01-.24-.03-.41-.11-.51-.09-.1-.24-.14-.46-.14h-1.01c-.22 0-.39.04-.48.14-.09.1-.13.27-.13.51v21.87c0 .24.04.42.13.51.09.1.26.15.48.15h1.01c.22 0 .37-.05.46-.15.08-.09.12-.27.11-.51v-9.99h5.31V16c0 1.72.32 3.18.95 4.4a6.511 6.511 0 0 0 2.79 2.78c1.23.65 2.73.98 4.51.98 1.77 0 3.25-.33 4.47-.98a6.435 6.435 0 0 0 2.78-2.78c.63-1.22.95-2.68.95-4.4V8.23c0-1.71-.32-3.17-.95-4.39a6.458 6.458 0 0 0-2.78-2.79C89.8.41 88.32.08 86.55.07c-1.78.01-3.28.34-4.51.98a6.534 6.534 0 0 0-2.79 2.79c-.63 1.22-.95 2.68-.95 4.39v2.62ZM92.56 16c0 1.28-.24 2.36-.7 3.25a4.61 4.61 0 0 1-2.03 2.02c-.89.47-1.98.7-3.28.71-1.3-.01-2.4-.24-3.29-.71-.9-.46-1.58-1.13-2.04-2.02-.47-.89-.7-1.97-.7-3.25V8.23c0-1.27.23-2.36.7-3.24.46-.89 1.14-1.57 2.04-2.03.89-.47 1.99-.7 3.29-.7s2.39.23 3.28.7c.89.46 1.57 1.14 2.03 2.03.46.88.7 1.97.7 3.24V16ZM99.47.53c-.22 0-.38.04-.47.14-.1.1-.14.27-.14.51v21.87c0 .24.04.42.14.51.09.1.25.15.47.15h1.01c.22 0 .37-.05.46-.15.08-.09.12-.27.12-.51v-8.06h6.55c1.43 0 2.66-.29 3.68-.86 1.03-.57 1.81-1.39 2.37-2.47.55-1.07.83-2.37.84-3.88-.01-1.52-.29-2.82-.84-3.9-.56-1.08-1.34-1.9-2.37-2.48-1.02-.58-2.25-.86-3.68-.87h-8.14Zm1.59 12.27V2.75h6.37c.99.01 1.84.21 2.55.6.71.41 1.27.98 1.65 1.73.38.75.58 1.65.58 2.7 0 1.05-.2 1.94-.58 2.7-.38.74-.94 1.32-1.65 1.71-.71.41-1.56.61-2.55.61h-6.37ZM132.6.53c-.14 0-.26.03-.37.08-.11.05-.2.13-.27.25l-8.78 13.67c-.72 1.13-1.36 2.21-1.93 3.23-.57 1.03-1.07 2-1.51 2.91h-.09c.12-1.13.21-2.27.27-3.45.06-1.17.09-2.36.09-3.57V1.18c.01-.24-.03-.41-.12-.51-.08-.1-.23-.14-.46-.14h-1c-.23 0-.39.04-.48.14-.09.1-.14.27-.13.51v21.87c-.01.24.04.42.13.51.09.1.25.15.48.15h1a.757.757 0 0 0 .64-.36l8.99-14.01c.72-1.17 1.35-2.24 1.89-3.21.55-.96 1.01-1.81 1.37-2.56h.06c-.14 1.15-.23 2.29-.3 3.4-.06 1.11-.09 2.19-.09 3.26v12.82c0 .24.04.42.13.51.09.1.25.15.48.15h1c.22 0 .39-.05.48-.15.09-.09.14-.27.13-.51V1.18c.01-.24-.04-.41-.13-.51-.09-.1-.26-.14-.48-.14h-1Zm5.72 15.44c.01 1.71.33 3.18.98 4.4.65 1.22 1.6 2.16 2.84 2.81 1.24.65 2.75.98 4.53.98 1.53 0 2.84-.21 3.92-.64 1.08-.42 1.97-1.06 2.66-1.9.7-.85 1.23-1.91 1.59-3.17.06-.2.06-.36 0-.49s-.18-.24-.37-.33l-.94-.39a.652.652 0 0 0-.48.03c-.13.07-.24.2-.31.4-.28.99-.67 1.8-1.18 2.43-.5.64-1.15 1.11-1.95 1.42-.79.3-1.77.46-2.94.46-1.31-.01-2.42-.25-3.33-.72a4.82 4.82 0 0 1-2.08-2.04c-.47-.89-.71-1.96-.71-3.22V8.23c0-1.26.23-2.34.7-3.23.47-.88 1.15-1.56 2.06-2.03.91-.47 2.03-.71 3.36-.71 1.15 0 2.11.15 2.9.45.79.3 1.43.76 1.94 1.38.49.62.89 1.41 1.16 2.38.08.18.18.3.31.37.13.06.29.07.49.02l.94-.36c.23-.07.36-.18.41-.3.05-.13.04-.31-.04-.54-.36-1.26-.89-2.3-1.58-3.12-.69-.83-1.58-1.44-2.65-1.85-1.08-.42-2.37-.62-3.88-.62-1.8.01-3.32.34-4.56.99a6.54 6.54 0 0 0-2.82 2.81c-.64 1.21-.96 2.68-.97 4.4v7.7ZM156.97.53c-.22 0-.38.04-.48.14-.09.1-.13.27-.13.51v.92c0 .24.04.41.13.51.1.1.26.14.48.14h6.16v20.3c-.01.24.04.42.13.51.09.1.25.15.48.15h1c.23 0 .39-.05.48-.15.09-.09.14-.27.13-.51V2.75h6.16c.22 0 .38-.04.47-.14.09-.1.14-.27.14-.51v-.92c0-.24-.05-.41-.14-.51-.09-.1-.25-.14-.47-.14h-14.54Zm17.28 15.44c0 1.71.33 3.18.97 4.4a6.587 6.587 0 0 0 2.84 2.81c1.24.65 2.77.98 4.57.98 1.79 0 3.3-.33 4.55-.98a6.618 6.618 0 0 0 2.83-2.81c.64-1.22.96-2.69.97-4.4v-7.7c-.01-1.72-.33-3.19-.97-4.4a6.618 6.618 0 0 0-2.83-2.81c-1.25-.65-2.76-.98-4.55-.99-1.8.01-3.33.34-4.57.99a6.587 6.587 0 0 0-2.84 2.81c-.64 1.21-.97 2.68-.97 4.4v7.7Zm14.53 0c0 1.28-.24 2.36-.7 3.25a4.79 4.79 0 0 1-2.08 2.05c-.91.47-2.04.7-3.37.71-1.33-.01-2.46-.24-3.38-.71a4.76 4.76 0 0 1-2.09-2.05c-.48-.89-.72-1.97-.72-3.25v-7.7c0-1.28.24-2.36.72-3.26.48-.89 1.17-1.57 2.09-2.04.92-.47 2.05-.71 3.38-.71s2.46.24 3.37.71c.91.47 1.6 1.15 2.08 2.04.46.9.7 1.98.7 3.26v7.7ZM195.7.53c-.22 0-.39.04-.48.14-.09.1-.13.27-.13.51v21.87c0 .24.04.42.13.51.09.1.26.15.48.15h8.93c1.29-.01 2.42-.25 3.35-.74.94-.49 1.67-1.2 2.18-2.13.51-.93.77-2.05.78-3.37 0-1.57-.31-2.82-.91-3.77-.61-.95-1.52-1.6-2.72-1.94v-.07c.96-.44 1.68-1.09 2.15-1.97.47-.88.71-1.96.71-3.25 0-1.28-.23-2.35-.69-3.24a4.572 4.572 0 0 0-2-2.01c-.87-.46-1.93-.69-3.19-.69h-8.59Zm12.22 6.24c-.01 1.35-.34 2.37-1 3.05-.67.68-1.63 1.03-2.9 1.03h-6.74v-8.1h6.74c1.29 0 2.27.33 2.92 1 .65.67.98 1.68.98 3.02Zm-.34 13.64a3.3 3.3 0 0 1-1.29.81c-.51.18-1.1.27-1.75.27h-7.26v-8.52h7.26c.65 0 1.24.08 1.75.26s.94.46 1.29.81c.35.38.61.83.79 1.36.17.53.25 1.14.25 1.84 0 .7-.08 1.32-.25 1.84-.18.53-.44.97-.79 1.33Z" fill="#140A32"/><path d="M78.3 10.85h-5.31V1.18c.01-.24-.03-.41-.11-.51-.09-.1-.24-.14-.46-.14h-1.01c-.22 0-.39.04-.48.14-.09.1-.13.27-.13.51v21.87c0 .24.04.42.13.51.09.1.26.15.48.15h1.01c.22 0 .37-.05.46-.15.08-.09.12-.27.11-.51v-9.99h5.31V16c0 1.72.32 3.18.95 4.4a6.511 6.511 0 0 0 2.79 2.78c1.23.65 2.73.98 4.51.98 1.77 0 3.25-.33 4.47-.98a6.435 6.435 0 0 0 2.78-2.78c.63-1.22.95-2.68.95-4.4V8.23c0-1.71-.32-3.17-.95-4.39a6.458 6.458 0 0 0-2.78-2.79C89.8.41 88.32.08 86.55.07c-1.78.01-3.28.34-4.51.98a6.534 6.534 0 0 0-2.79 2.79c-.63 1.22-.95 2.68-.95 4.39v2.62ZM92.56 16c0 1.28-.24 2.36-.7 3.25a4.61 4.61 0 0 1-2.03 2.02c-.89.47-1.98.7-3.28.71-1.3-.01-2.4-.24-3.29-.71-.9-.46-1.58-1.13-2.04-2.02-.47-.89-.7-1.97-.7-3.25V8.23c0-1.27.23-2.36.7-3.24.46-.89 1.14-1.57 2.04-2.03.89-.47 1.99-.7 3.29-.7s2.39.23 3.28.7c.89.46 1.57 1.14 2.03 2.03.46.88.7 1.97.7 3.24V16ZM99.47.53c-.22 0-.38.04-.47.14-.1.1-.14.27-.14.51v21.87c0 .24.04.42.14.51.09.1.25.15.47.15h1.01c.22 0 .37-.05.46-.15.08-.09.12-.27.12-.51v-8.06h6.55c1.43 0 2.66-.29 3.68-.86 1.03-.57 1.81-1.39 2.37-2.47.55-1.07.83-2.37.84-3.88-.01-1.52-.29-2.82-.84-3.9-.56-1.08-1.34-1.9-2.37-2.48-1.02-.58-2.25-.86-3.68-.87h-8.14Zm1.59 12.27V2.75h6.37c.99.01 1.84.21 2.55.6.71.41 1.27.98 1.65 1.73.38.75.58 1.65.58 2.7 0 1.05-.2 1.94-.58 2.7-.38.74-.94 1.32-1.65 1.71-.71.41-1.56.61-2.55.61h-6.37ZM132.6.53c-.14 0-.26.03-.37.08-.11.05-.2.13-.27.25l-8.78 13.67c-.72 1.13-1.36 2.21-1.93 3.23-.57 1.03-1.07 2-1.51 2.91h-.09c.12-1.13.21-2.27.27-3.45.06-1.17.09-2.36.09-3.57V1.18c.01-.24-.03-.41-.12-.51-.08-.1-.23-.14-.46-.14h-1c-.23 0-.39.04-.48.14-.09.1-.14.27-.13.51v21.87c-.01.24.04.42.13.51.09.1.25.15.48.15h1a.757.757 0 0 0 .64-.36l8.99-14.01c.72-1.17 1.35-2.24 1.89-3.21.55-.96 1.01-1.81 1.37-2.56h.06c-.14 1.15-.23 2.29-.3 3.4-.06 1.11-.09 2.19-.09 3.26v12.82c0 .24.04.42.13.51.09.1.25.15.48.15h1c.22 0 .39-.05.48-.15.09-.09.14-.27.13-.51V1.18c.01-.24-.04-.41-.13-.51-.09-.1-.26-.14-.48-.14h-1Zm5.72 15.44c.01 1.71.33 3.18.98 4.4.65 1.22 1.6 2.16 2.84 2.81 1.24.65 2.75.98 4.53.98 1.53 0 2.84-.21 3.92-.64 1.08-.42 1.97-1.06 2.66-1.9.7-.85 1.23-1.91 1.59-3.17.06-.2.06-.36 0-.49s-.18-.24-.37-.33l-.94-.39a.652.652 0 0 0-.48.03c-.13.07-.24.2-.31.4-.28.99-.67 1.8-1.18 2.43-.5.64-1.15 1.11-1.95 1.42-.79.3-1.77.46-2.94.46-1.31-.01-2.42-.25-3.33-.72a4.82 4.82 0 0 1-2.08-2.04c-.47-.89-.71-1.96-.71-3.22V8.23c0-1.26.23-2.34.7-3.23.47-.88 1.15-1.56 2.06-2.03.91-.47 2.03-.71 3.36-.71 1.15 0 2.11.15 2.9.45.79.3 1.43.76 1.94 1.38.49.62.89 1.41 1.16 2.38.08.18.18.3.31.37.13.06.29.07.49.02l.94-.36c.23-.07.36-.18.41-.3.05-.13.04-.31-.04-.54-.36-1.26-.89-2.3-1.58-3.12-.69-.83-1.58-1.44-2.65-1.85-1.08-.42-2.37-.62-3.88-.62-1.8.01-3.32.34-4.56.99a6.54 6.54 0 0 0-2.82 2.81c-.64 1.21-.96 2.68-.97 4.4v7.7ZM156.97.53c-.22 0-.38.04-.48.14-.09.1-.13.27-.13.51v.92c0 .24.04.41.13.51.1.1.26.14.48.14h6.16v20.3c-.01.24.04.42.13.51.09.1.25.15.48.15h1c.23 0 .39-.05.48-.15.09-.09.14-.27.13-.51V2.75h6.16c.22 0 .38-.04.47-.14.09-.1.14-.27.14-.51v-.92c0-.24-.05-.41-.14-.51-.09-.1-.25-.14-.47-.14h-14.54Zm17.28 15.44c0 1.71.33 3.18.97 4.4a6.587 6.587 0 0 0 2.84 2.81c1.24.65 2.77.98 4.57.98 1.79 0 3.3-.33 4.55-.98a6.618 6.618 0 0 0 2.83-2.81c.64-1.22.96-2.69.97-4.4v-7.7c-.01-1.72-.33-3.19-.97-4.4a6.618 6.618 0 0 0-2.83-2.81c-1.25-.65-2.76-.98-4.55-.99-1.8.01-3.33.34-4.57.99a6.587 6.587 0 0 0-2.84 2.81c-.64 1.21-.97 2.68-.97 4.4v7.7Zm14.53 0c0 1.28-.24 2.36-.7 3.25a4.79 4.79 0 0 1-2.08 2.05c-.91.47-2.04.7-3.37.71-1.33-.01-2.46-.24-3.38-.71a4.76 4.76 0 0 1-2.09-2.05c-.48-.89-.72-1.97-.72-3.25v-7.7c0-1.28.24-2.36.72-3.26.48-.89 1.17-1.57 2.09-2.04.92-.47 2.05-.71 3.38-.71s2.46.24 3.37.71c.91.47 1.6 1.15 2.08 2.04.46.9.7 1.98.7 3.26v7.7ZM195.7.53c-.22 0-.39.04-.48.14-.09.1-.13.27-.13.51v21.87c0 .24.04.42.13.51.09.1.26.15.48.15h8.93c1.29-.01 2.42-.25 3.35-.74.94-.49 1.67-1.2 2.18-2.13.51-.93.77-2.05.78-3.37 0-1.57-.31-2.82-.91-3.77-.61-.95-1.52-1.6-2.72-1.94v-.07c.96-.44 1.68-1.09 2.15-1.97.47-.88.71-1.96.71-3.25 0-1.28-.23-2.35-.69-3.24a4.572 4.572 0 0 0-2-2.01c-.87-.46-1.93-.69-3.19-.69h-8.59Zm12.22 6.24c-.01 1.35-.34 2.37-1 3.05-.67.68-1.63 1.03-2.9 1.03h-6.74v-8.1h6.74c1.29 0 2.27.33 2.92 1 .65.67.98 1.68.98 3.02Zm-.34 13.64a3.3 3.3 0 0 1-1.29.81c-.51.18-1.1.27-1.75.27h-7.26v-8.52h7.26c.65 0 1.24.08 1.75.26s.94.46 1.29.81c.35.38.61.83.79 1.36.17.53.25 1.14.25 1.84 0 .7-.08 1.32-.25 1.84-.18.53-.44.97-.79 1.33ZM6.38 31.05H4.96v-2.38c0-.12-.02-.2-.06-.25-.05-.04-.13-.06-.25-.06h-.53c-.11 0-.19.02-.24.06-.04.05-.06.13-.06.25v5.9c0 .2.1.3.3.3h.53c.12 0 .2-.02.25-.06.04-.05.06-.13.06-.24V32.1h1.42v.56c0 .5.11.93.33 1.29.21.36.53.63.94.82.41.19.91.29 1.5.29s1.09-.1 1.5-.29c.41-.19.73-.46.95-.82.21-.36.32-.79.32-1.29v-2.09c0-.5-.11-.93-.32-1.29-.22-.36-.54-.63-.95-.82-.41-.19-.91-.28-1.5-.29-.59.01-1.09.1-1.5.29-.41.19-.73.46-.94.82-.22.36-.33.79-.33 1.29v.48Zm4.41 1.61c0 .29-.07.53-.2.74-.13.2-.32.36-.57.47-.24.11-.53.17-.87.17-.34 0-.64-.06-.88-.17-.24-.11-.43-.27-.56-.47a1.36 1.36 0 0 1-.19-.74v-2.09c0-.29.06-.54.19-.74.13-.21.32-.36.56-.47.24-.11.54-.16.88-.16.52 0 .93.12 1.21.36.28.23.42.57.43 1.01v2.09Zm2.97-4.12c-.13.05-.23.11-.3.17-.07.05-.12.13-.15.21-.03.09-.04.2-.04.34v8.08c0 .11.02.18.07.23.04.05.12.07.22.07h.53c.12 0 .2-.02.24-.06.05-.04.07-.12.06-.24v-2.62c.33.11.63.2.9.25.28.06.52.09.75.09 1.79 0 2.68-.86 2.68-2.57v-1.78c0-.85-.22-1.48-.66-1.9-.44-.43-1.1-.64-1.97-.64-.46 0-.89.04-1.27.1-.39.06-.74.15-1.06.27Zm3.83 3.91c0 .52-.14.91-.41 1.18-.27.26-.68.39-1.23.39-.21 0-.43-.02-.69-.08-.26-.05-.55-.14-.87-.24v-4.04c0-.07.01-.13.04-.16.02-.04.07-.07.15-.1.22-.07.44-.11.66-.15.22-.03.45-.04.68-.04.56 0 .97.13 1.25.38.28.26.42.65.42 1.16v1.7Zm2.8-4.09c-.12 0-.2.02-.24.06-.05.05-.07.13-.06.25v5.9c0 .2.1.3.3.3h.53c.12 0 .23-.05.3-.15l2.71-3.7c.15-.2.28-.4.4-.6.12-.19.22-.37.31-.56h.04c-.07.33-.12.63-.16.91-.03.28-.04.54-.04.77v3.03c-.01.11.02.19.06.24.04.04.12.06.24.06h.53c.12 0 .2-.02.24-.06.04-.05.06-.13.06-.24v-5.9c0-.12-.02-.2-.06-.25-.04-.04-.12-.06-.24-.06h-.53c-.06 0-.12.02-.17.04-.05.03-.09.06-.12.11l-2.75 3.74c-.28.36-.51.74-.68 1.13h-.04c.07-.27.12-.54.15-.81.03-.28.05-.55.05-.83v-3.07c0-.12-.02-.2-.06-.25-.04-.04-.12-.06-.24-.06h-.53Zm12.48 5.46v-5.15c0-.12-.03-.2-.07-.25-.05-.04-.13-.06-.24-.06H28.4c-.11 0-.18.02-.23.06-.05.05-.07.13-.07.25v1.9c0 .52-.02.97-.06 1.34-.03.38-.09.68-.16.9-.07.24-.16.44-.26.6-.1.17-.22.31-.35.41h-.35c-.1 0-.18.02-.22.07-.04.05-.07.13-.07.25v2.18c0 .11.03.18.07.23.04.05.12.07.22.07h.5c.1 0 .18-.02.23-.07.06-.05.08-.13.08-.23v-1.45h4.99v1.45c0 .11.02.18.07.23.05.05.12.07.23.07h.49c.12 0 .2-.02.24-.07.04-.05.07-.12.06-.23v-2.18c.01-.12-.02-.2-.06-.25-.04-.05-.12-.07-.24-.07h-.64Zm-3.67-4.41h2.53v4.41h-3.17c.21-.3.37-.72.48-1.25.1-.53.16-1.17.16-1.94v-1.22Zm5.91-1.05c-.11 0-.19.02-.24.06-.04.05-.06.13-.06.25v5.9c0 .2.1.3.3.3h.53c.13 0 .23-.05.31-.15l2.71-3.7c.14-.2.28-.4.39-.6.12-.19.23-.37.32-.56h.03c-.07.33-.12.63-.15.91s-.05.54-.05.77v3.03c0 .11.02.19.06.24.05.04.13.06.24.06h.53c.12 0 .2-.02.25-.06.04-.05.06-.13.06-.24v-5.9c0-.12-.02-.2-.06-.25-.05-.04-.13-.06-.25-.06h-.53c-.06 0-.12.02-.16.04-.05.03-.09.06-.13.11l-2.75 3.74c-.27.36-.5.74-.68 1.13h-.04c.07-.27.12-.54.16-.81.03-.28.05-.55.05-.83v-3.07c0-.12-.02-.2-.06-.25-.05-.04-.13-.06-.25-.06h-.53Zm6.41 1.83c0 .8.21 1.4.63 1.8.41.4 1.06.6 1.93.6.75 0 1.28-.07 1.59-.19v2.17c0 .11.03.19.08.24.04.04.12.06.23.06h.53c.1 0 .18-.02.23-.06.05-.05.07-.13.07-.24v-5.9c0-.12-.02-.2-.07-.25-.05-.04-.13-.06-.23-.06h-.53c-.11 0-.19.02-.23.06-.05.05-.08.13-.08.25v2.67c-.37.15-.85.23-1.43.23-1.06 0-1.59-.47-1.59-1.4v-1.5c0-.11-.02-.19-.07-.24-.04-.04-.12-.07-.22-.07h-.53c-.12 0-.2.02-.25.06-.04.05-.06.13-.06.25v1.52Zm6.63 2.25c0 .54.1 1 .31 1.39.2.39.51.69.93.91.41.21.93.32 1.56.32.65 0 1.21-.11 1.66-.33.46-.21.81-.54 1.05-.97.14-.21.1-.38-.11-.49l-.34-.18c-.11-.07-.2-.09-.27-.07-.08.01-.15.08-.22.18-.17.29-.41.51-.7.66-.3.14-.65.21-1.06.21-.55 0-.97-.13-1.26-.39-.28-.26-.43-.63-.43-1.12v-.6h4.11c.16 0 .28-.04.36-.11.07-.08.11-.19.11-.33v-.74c0-.52-.11-.98-.32-1.37-.22-.39-.54-.69-.96-.91-.42-.21-.95-.32-1.57-.33-.62.01-1.14.11-1.57.32-.42.21-.74.52-.95.92-.22.4-.33.89-.33 1.46v1.57Zm4.58-1.35h-3.46v-.37c0-.33.07-.62.2-.85.13-.24.33-.42.58-.55.26-.12.57-.19.95-.19.56 0 .99.14 1.28.42.3.27.45.66.45 1.17v.37Zm2.17 1.42c0 .54.1 1 .31 1.38.2.38.5.67.91.87.41.2.92.3 1.53.3 1.42 0 2.35-.58 2.76-1.74.04-.1.04-.19 0-.26-.03-.07-.11-.13-.21-.17l-.44-.13c-.12-.04-.21-.05-.27-.02-.06.03-.12.11-.16.23-.12.36-.32.64-.59.82-.28.18-.63.27-1.07.27-.53 0-.94-.13-1.22-.39s-.41-.63-.42-1.11v-1.9c.01-.48.14-.84.42-1.1.28-.26.69-.39 1.22-.39.44 0 .79.09 1.07.27.27.17.46.44.57.79.05.11.11.19.18.22.07.03.15.03.25-.02l.45-.14c.1-.04.17-.09.21-.16.03-.07.02-.16-.01-.27-.18-.56-.49-.98-.93-1.26-.44-.28-1.02-.43-1.74-.43-.62.01-1.15.11-1.56.3-.42.2-.74.49-.95.87-.21.38-.31.83-.31 1.37v1.8Zm11.1-.24c-.13-.27-.28-.49-.45-.66-.17-.17-.36-.3-.56-.37l2.02-2.52c.1-.12.13-.21.1-.27-.04-.06-.13-.09-.29-.09h-.48c-.12 0-.21.01-.28.01-.07.01-.13.03-.17.07-.05.03-.09.08-.14.15l-1.88 2.43h-1.11v-2.35c0-.12-.02-.2-.07-.25-.05-.04-.13-.06-.25-.06h-.5c-.12 0-.2.02-.25.06-.05.05-.07.13-.07.25v5.88c0 .12.02.2.07.25.05.05.13.07.25.07h.5c.12 0 .2-.02.25-.07.05-.05.07-.13.07-.25v-2.48h1.15c.19 0 .36.02.5.07.14.04.26.12.36.22.1.1.2.24.27.4l.87 1.83c.04.08.08.14.11.18.04.04.09.07.15.08.06.01.15.02.26.02h.49c.15 0 .23-.03.26-.08.03-.06.01-.15-.07-.27L66 32.27Zm2.5-3.91c-.12 0-.2.02-.24.06-.04.05-.06.13-.06.25v5.9c0 .2.1.3.3.3h.53c.13 0 .23-.05.3-.15l2.72-3.7c.14-.2.27-.4.39-.6.12-.19.22-.37.31-.56h.04c-.07.33-.12.63-.15.91s-.05.54-.05.77v3.03c0 .11.02.19.06.24.04.04.12.06.24.06h.53c.12 0 .2-.02.24-.06.05-.05.07-.13.06-.24v-5.9c.01-.12-.01-.2-.06-.25-.04-.04-.12-.06-.24-.06h-.53c-.06 0-.12.02-.17.04-.05.03-.09.06-.12.11l-2.75 3.74c-.28.36-.5.74-.68 1.13h-.04c.07-.27.12-.54.15-.81.04-.28.05-.55.05-.83v-3.07c0-.12-.02-.2-.06-.25-.04-.04-.12-.06-.24-.06h-.53Zm6.56 4.08c0 .54.1 1 .31 1.39.21.39.52.69.93.91.42.21.94.32 1.56.32.66 0 1.21-.11 1.67-.33.45-.21.8-.54 1.05-.97.13-.21.1-.38-.12-.49l-.34-.18c-.1-.07-.19-.09-.27-.07-.07.01-.15.08-.22.18-.17.29-.4.51-.7.66-.29.14-.64.21-1.05.21-.56 0-.97-.13-1.26-.39-.29-.26-.43-.63-.44-1.12v-.6h4.12c.16 0 .27-.04.35-.11.08-.08.11-.19.11-.33v-.74c0-.52-.1-.98-.32-1.37-.22-.39-.54-.69-.96-.91-.42-.21-.94-.32-1.57-.33-.62.01-1.14.11-1.56.32-.42.21-.74.52-.96.92-.22.4-.33.89-.33 1.46v1.57Zm4.58-1.35h-3.46v-.37c0-.33.07-.62.2-.85.13-.24.33-.42.59-.55.25-.12.57-.19.94-.19.57 0 1 .14 1.29.42.29.27.44.66.44 1.17v.37Zm9.64 1.18c-.13-.27-.28-.49-.45-.66-.17-.17-.36-.3-.56-.37l2.02-2.52c.1-.12.13-.21.1-.27-.04-.06-.13-.09-.29-.09h-.48c-.12 0-.21.01-.28.01-.07.01-.13.03-.17.07-.05.03-.09.08-.14.15l-1.88 2.43h-1.11v-2.35c0-.12-.02-.2-.07-.25-.05-.04-.13-.06-.25-.06h-.5c-.12 0-.2.02-.25.06-.05.05-.07.13-.07.25v5.88c0 .12.02.2.07.25.05.05.13.07.25.07h.5c.12 0 .2-.02.25-.07.05-.05.07-.13.07-.25v-2.48h1.15c.19 0 .36.02.5.07.14.04.26.12.36.22.1.1.2.24.27.4l.87 1.83c.04.08.08.14.11.18.04.04.09.07.15.08.06.01.15.02.26.02h.49c.15 0 .23-.03.26-.08.03-.06.01-.15-.07-.27l-1.11-2.25Zm2 .38c0 .5.11.93.34 1.29.22.36.54.63.96.83.42.19.93.29 1.52.29.61 0 1.12-.1 1.54-.29.42-.2.74-.47.97-.83.22-.36.33-.79.33-1.29v-2.06c0-.5-.11-.93-.33-1.3-.23-.36-.55-.63-.97-.82-.42-.2-.93-.29-1.54-.3-.59.01-1.1.1-1.52.3-.42.19-.74.46-.96.82-.23.37-.34.8-.34 1.3v2.06Zm4.54 0c0 .29-.07.54-.21.75-.13.2-.33.36-.59.47-.25.11-.56.17-.92.17-.35 0-.66-.06-.91-.17-.26-.11-.45-.27-.59-.47-.13-.21-.2-.46-.2-.75v-2.07c0-.29.07-.54.2-.74.14-.21.33-.37.59-.48.25-.11.56-.16.91-.16.36 0 .67.05.92.16.26.11.46.27.59.48.14.2.21.45.21.74v2.07Zm7.11-4.29c-.1 0-.18.02-.23.06-.04.05-.07.13-.07.25v2.35h-3.19v-2.35c0-.12-.02-.2-.06-.25-.05-.04-.13-.06-.24-.06h-.53c-.12 0-.2.02-.25.06-.04.05-.06.13-.06.25v5.9c0 .2.1.3.31.3h.53c.11 0 .19-.02.24-.06.04-.05.06-.13.06-.24v-2.5h3.19v2.5c0 .11.03.19.07.24.05.04.13.06.23.06h.53c.11 0 .19-.02.24-.06a.38.38 0 0 0 .07-.24v-5.9c0-.12-.03-.2-.07-.25-.05-.04-.13-.06-.24-.06h-.53Zm2.19 4.15c0 .54.1 1 .3 1.38.21.38.51.67.92.87.41.2.92.3 1.53.3 1.42 0 2.35-.58 2.76-1.74.04-.1.04-.19 0-.26-.03-.07-.11-.13-.21-.17l-.44-.13c-.12-.04-.21-.05-.27-.02-.06.03-.12.11-.16.23-.12.36-.32.64-.59.82-.28.18-.63.27-1.07.27-.53 0-.94-.13-1.22-.39s-.41-.63-.42-1.11v-1.9c.01-.48.14-.84.42-1.1.28-.26.69-.39 1.22-.39.44 0 .79.09 1.07.27.27.17.46.44.57.79.05.11.11.19.18.22.07.03.15.03.25-.02l.44-.14c.11-.04.18-.09.22-.16.03-.07.02-.16-.01-.27-.18-.56-.49-.98-.93-1.26-.44-.28-1.02-.43-1.74-.43-.62.01-1.15.11-1.56.3-.42.2-.74.49-.95.87-.21.38-.31.83-.31 1.37v1.8Zm11.34-4.15c-.11 0-.18.02-.23.06-.05.05-.07.13-.07.25v4.85c-.29.09-.56.16-.83.2-.27.04-.53.06-.79.06-.53 0-.92-.12-1.19-.37-.26-.25-.4-.63-.4-1.13v-3.61a.33.33 0 0 0-.06-.24.35.35 0 0 0-.23-.07h-.53c-.11 0-.19.02-.24.06-.04.05-.06.13-.06.25v3.65c0 .83.21 1.46.64 1.87.43.42 1.07.63 1.92.63.27 0 .55-.02.84-.07.3-.04.61-.11.93-.2v.68c0 .56-.14.98-.41 1.25-.27.28-.67.42-1.21.42-.36 0-.67-.07-.93-.21-.25-.14-.47-.35-.63-.64a.916.916 0 0 0-.14-.14.206.206 0 0 0-.15-.03c-.06 0-.13.02-.2.06l-.37.2c-.11.06-.17.13-.19.2-.03.08 0 .17.06.28.25.43.59.75 1.01.97.43.21.94.32 1.56.32 1.81 0 2.72-.91 2.72-2.73v-6.51c0-.12-.02-.2-.06-.25-.04-.04-.12-.06-.24-.06h-.52Zm3.35 0c-.12 0-.2.02-.25.06-.04.05-.06.13-.06.25v1.96c0 .66-.03 1.21-.09 1.65-.07.44-.17.77-.31 1-.09.15-.17.27-.25.35-.08.08-.16.15-.24.21-.08.05-.19.11-.31.17a.35.35 0 0 0-.13.15c-.02.06-.01.13.02.2l.27.51c.04.08.09.13.15.16.06.02.13.02.21-.01.17-.08.32-.17.46-.26s.26-.2.38-.33c.13-.14.25-.3.37-.51.19-.3.33-.72.43-1.26.09-.54.14-1.19.14-1.95v-1.3h2.44v5.16c-.01.11.01.19.06.24.04.04.12.06.24.06h.52c.1 0 .18-.02.23-.06.05-.05.07-.13.07-.24v-5.9c0-.12-.02-.2-.07-.25-.05-.04-.13-.06-.23-.06h-4.05Zm6.96 1.97v-1.66c0-.12-.02-.2-.06-.25-.05-.04-.12-.06-.24-.06h-.53c-.12 0-.2.02-.24.06-.05.05-.07.13-.07.25v5.9c0 .11.02.19.07.24.04.04.12.06.24.06h2.79c.48 0 .9-.1 1.24-.28.35-.18.61-.44.8-.78.18-.34.28-.75.28-1.22 0-.48-.1-.88-.28-1.22-.19-.33-.45-.59-.8-.77-.34-.18-.76-.27-1.24-.27h-1.96Zm0 3.53v-2.51h1.82c.4.01.71.11.93.33.23.22.34.52.34.91 0 .4-.11.71-.34.93-.22.22-.53.34-.93.34h-1.82Zm5.1-5.5c-.12 0-.2.02-.24.06-.05.05-.07.13-.07.25v.44c0 .1.02.18.07.23.04.05.12.07.24.07h1.84v5.16c0 .11.02.19.06.24.05.04.12.06.24.06h.53c.11 0 .18-.02.23-.06a.33.33 0 0 0 .06-.24v-5.16h1.84c.11 0 .19-.02.24-.07a.37.37 0 0 0 .07-.23v-.44c0-.12-.03-.2-.07-.25-.05-.04-.13-.06-.24-.06h-4.8Zm5.94 1.14c-.05.1-.06.19-.03.25.02.08.09.13.19.18l.4.17c.07.03.13.05.18.05.04 0 .08-.02.11-.05.03-.03.07-.08.12-.15.16-.26.37-.45.63-.58.26-.12.57-.19.94-.19.36 0 .66.06.88.18.22.11.38.28.48.5.09.23.14.5.14.82v.48c-.25-.03-.5-.05-.74-.06-.24-.02-.47-.03-.7-.03-.68 0-1.22.06-1.63.19-.42.13-.72.34-.91.63-.18.29-.28.68-.27 1.16 0 .35.05.65.15.9.1.25.24.46.44.62.19.16.47.28.84.36.36.09.81.13 1.33.13.47 0 .89-.03 1.25-.09.36-.05.67-.13.92-.24.12-.05.21-.1.28-.16.06-.05.11-.12.13-.21.03-.09.04-.2.04-.35v-3.29c.01-.53-.08-.98-.25-1.36a1.86 1.86 0 0 0-.83-.88c-.39-.2-.9-.3-1.53-.31-.62 0-1.15.11-1.58.33-.42.22-.75.56-.98 1Zm4.04 4.18c0 .07-.02.13-.05.18-.03.04-.08.08-.14.1-.29.1-.76.15-1.4.15-.39 0-.7-.04-.92-.11-.22-.08-.38-.2-.47-.35-.1-.16-.14-.36-.14-.6s.05-.45.15-.6c.1-.16.26-.27.48-.35.23-.07.54-.11.92-.11.19 0 .41.01.67.03.27.02.56.04.9.08v1.58Zm7.93.14v-5.15c0-.12-.02-.2-.07-.25-.04-.04-.12-.06-.23-.06h-.53c-.1 0-.18.02-.23.06-.05.05-.07.13-.07.25v5.15h-3.07v-5.15c.01-.12-.02-.2-.06-.25-.04-.04-.12-.06-.24-.06h-.53c-.2 0-.3.1-.3.31v5.9c0 .11.02.19.06.24.04.04.12.06.24.06h4.88v1.45c0 .11.03.18.08.23.04.05.12.07.23.07h.49c.12 0 .2-.02.24-.07.04-.05.06-.12.06-.23v-2.18c0-.12-.02-.2-.06-.25-.04-.05-.12-.07-.24-.07h-.65ZM152.03 28.36c-.12 0-.2.02-.24.06-.04.05-.06.13-.06.25v5.9c0 .2.1.3.3.3h.53c.13 0 .23-.05.3-.15l2.72-3.7c.14-.2.27-.4.39-.59.12-.2.23-.38.31-.57h.04c-.07.33-.12.63-.15.91s-.05.54-.05.77v3.03c0 .11.02.19.06.24.04.04.12.06.24.06h.53c.12 0 .2-.02.24-.06.05-.05.07-.13.06-.24v-5.9c.01-.12-.01-.2-.06-.25-.04-.04-.12-.06-.24-.06h-.53c-.06 0-.12.02-.17.04-.04.03-.09.06-.12.12l-2.75 3.73c-.28.36-.5.74-.68 1.13h-.04c.07-.27.12-.54.16-.81.03-.27.04-.55.04-.83v-3.07c.01-.12-.01-.2-.06-.25-.04-.04-.12-.06-.24-.06h-.53Zm7.09 0c-.12 0-.2.02-.24.06-.04.05-.06.13-.06.25v5.9c0 .2.1.3.3.3h.53c.13 0 .23-.05.31-.15l2.71-3.7c.14-.2.28-.4.39-.59.12-.2.23-.38.31-.57h.04c-.07.33-.12.63-.15.91s-.05.54-.05.77v3.03c0 .11.02.19.06.24.05.04.12.06.24.06h.53c.12 0 .2-.02.25-.06.04-.05.06-.13.06-.24v-5.9c0-.12-.02-.2-.06-.25-.05-.04-.13-.06-.25-.06h-.53c-.06 0-.12.02-.17.04-.04.03-.09.06-.12.12l-2.75 3.73c-.28.36-.5.74-.68 1.13h-.04c.07-.27.12-.54.16-.81.03-.27.05-.55.05-.83v-3.07c0-.12-.02-.2-.07-.25-.04-.04-.12-.06-.24-.06h-.53Zm9.47 4.29c0 .5.11.93.34 1.29.22.36.54.64.96.83.42.19.93.29 1.52.29.61 0 1.12-.1 1.54-.29.42-.19.74-.47.97-.83.22-.36.33-.79.33-1.29V30.6c0-.51-.11-.94-.33-1.31a2.24 2.24 0 0 0-.97-.82c-.42-.2-.93-.29-1.54-.3-.59.01-1.1.1-1.52.3-.42.19-.74.47-.96.82-.23.37-.34.8-.34 1.31v2.05Zm4.54 0c0 .29-.07.54-.21.75-.13.2-.33.36-.59.47-.25.11-.56.17-.92.17-.35 0-.66-.06-.91-.17a1.39 1.39 0 0 1-.59-.47c-.13-.21-.2-.46-.2-.75v-2.07c0-.29.07-.54.2-.74.14-.21.34-.37.59-.48.25-.11.56-.16.91-.16.36 0 .67.05.92.16.26.11.46.27.59.48.14.2.21.45.21.74v2.07Zm7.11-4.29c-.1 0-.18.02-.23.06-.05.05-.07.13-.07.25v2.35h-3.19v-2.35c0-.12-.02-.2-.06-.25-.05-.04-.13-.06-.24-.06h-.53c-.12 0-.2.02-.25.06-.04.05-.06.13-.06.25v5.9c0 .2.1.3.31.3h.53c.11 0 .19-.02.24-.06.04-.05.06-.13.06-.24v-2.5h3.19v2.5c0 .11.02.19.07.24.05.04.13.06.23.06h.53c.11 0 .19-.02.24-.06a.38.38 0 0 0 .07-.24v-5.9c0-.12-.03-.2-.07-.25-.05-.04-.13-.06-.24-.06h-.53Zm3.39 0c-.12 0-.2.02-.25.06-.04.05-.06.13-.06.25v1.96c0 .66-.03 1.21-.09 1.65-.07.44-.17.77-.31 1-.09.15-.17.27-.25.35-.07.08-.15.15-.24.21-.08.05-.19.11-.31.17-.06.05-.11.1-.13.16-.02.05-.01.12.02.19l.27.51c.04.08.09.13.15.16.06.02.13.02.21-.01.17-.08.33-.17.46-.26.14-.09.27-.2.39-.33.12-.14.24-.3.36-.51.19-.3.33-.72.43-1.26.09-.54.14-1.19.14-1.95v-1.3h2.44v5.16c-.01.11.02.19.06.24.04.04.12.06.24.06h.52c.1 0 .18-.02.23-.06.05-.05.07-.13.07-.24v-5.9c0-.12-.02-.2-.07-.25-.05-.04-.13-.06-.23-.06h-4.05Zm5.7 1.14c-.05.1-.06.19-.04.25.03.08.1.13.2.18l.39.17c.08.03.14.05.19.05.04 0 .08-.02.11-.05.03-.03.07-.08.12-.15.16-.26.37-.45.63-.58.26-.12.57-.19.94-.19.36 0 .66.06.88.18.22.11.38.28.47.5.1.23.15.5.15.82v.48c-.26-.03-.5-.05-.74-.06-.24-.02-.47-.03-.7-.03-.68 0-1.22.07-1.63.19-.42.13-.72.34-.91.63-.18.29-.28.68-.27 1.16 0 .35.05.65.14.9.11.26.25.46.45.62.19.16.47.28.84.36.36.09.8.13 1.33.13.47 0 .89-.03 1.25-.09.36-.05.67-.13.92-.24.12-.05.21-.1.27-.15a.4.4 0 0 0 .14-.22c.03-.09.04-.2.04-.35v-3.29c0-.53-.08-.98-.25-1.36a1.86 1.86 0 0 0-.83-.88c-.39-.2-.9-.3-1.53-.31-.62 0-1.15.11-1.58.33-.43.23-.75.56-.98 1Zm4.04 4.18c0 .07-.02.13-.05.18-.03.04-.08.08-.14.1-.29.1-.76.15-1.4.15-.39 0-.7-.04-.92-.11-.22-.08-.38-.2-.47-.35-.1-.16-.14-.36-.14-.6s.05-.45.15-.6c.09-.16.26-.27.48-.35.23-.07.54-.11.92-.11.19 0 .41.01.67.03.26.02.56.04.9.08v1.58Zm7.35-7.55c.02-.06.02-.12 0-.16-.02-.05-.07-.08-.14-.12l-.44-.16c-.12-.04-.21 0-.26.11-.17.56-.53.84-1.1.84-.28 0-.51-.07-.69-.21-.18-.14-.31-.35-.39-.63-.03-.05-.07-.09-.12-.1a.304.304 0 0 0-.19 0l-.39.15c-.07.02-.11.06-.14.11-.02.04-.02.1 0 .17.15.45.38.78.7 1.01.31.22.72.33 1.22.33.51 0 .92-.11 1.24-.33.32-.23.56-.56.7-1.01Zm-4.45 2.23c-.12 0-.2.02-.24.06-.04.05-.07.13-.06.25v5.9c0 .2.1.3.3.3h.53c.13 0 .23-.05.3-.15l2.72-3.7c.14-.2.27-.4.39-.59.12-.2.22-.38.31-.57h.04c-.07.33-.12.63-.15.91-.04.28-.05.54-.05.77v3.03c0 .11.02.19.06.24.04.04.12.06.24.06h.53c.12 0 .2-.02.24-.06a.33.33 0 0 0 .06-.24v-5.9c.01-.12-.02-.2-.06-.25-.04-.04-.12-.06-.24-.06h-.53c-.06 0-.12.02-.17.04-.05.03-.09.06-.12.12l-2.75 3.73c-.28.36-.51.74-.68 1.13h-.04c.07-.27.12-.54.15-.81.04-.27.05-.55.05-.83v-3.07c0-.12-.02-.2-.06-.25-.04-.04-.12-.06-.24-.06h-.53Zm11.42 0c-.11 0-.18.02-.23.06-.05.05-.07.13-.07.25v2.35h-3.2v-2.35c.01-.12-.02-.2-.06-.25-.04-.04-.12-.06-.24-.06h-.53c-.12 0-.2.02-.24.06-.04.05-.06.13-.06.25v5.9c0 .2.1.3.3.3h.53c.12 0 .2-.02.24-.06a.33.33 0 0 0 .06-.24v-2.5h3.2v2.5c0 .11.02.19.07.24.05.04.12.06.23.06h.53c.11 0 .18-.02.23-.06.05-.05.07-.13.07-.24v-5.9c0-.12-.02-.2-.07-.25-.05-.04-.12-.06-.23-.06h-.53Z" fill="#140A32"/><path d="M6.38 31.05H4.96v-2.38c0-.12-.02-.2-.06-.25-.05-.04-.13-.06-.25-.06h-.53c-.11 0-.19.02-.24.06-.04.05-.06.13-.06.25v5.9c0 .2.1.3.3.3h.53c.12 0 .2-.02.25-.06.04-.05.06-.13.06-.24V32.1h1.42v.56c0 .5.11.93.33 1.29.21.36.53.63.94.82.41.19.91.29 1.5.29s1.09-.1 1.5-.29c.41-.19.73-.46.95-.82.21-.36.32-.79.32-1.29v-2.09c0-.5-.11-.93-.32-1.29-.22-.36-.54-.63-.95-.82-.41-.19-.91-.28-1.5-.29-.59.01-1.09.1-1.5.29-.41.19-.73.46-.94.82-.22.36-.33.79-.33 1.29v.48Zm4.41 1.61c0 .29-.07.53-.2.74-.13.2-.32.36-.57.47-.24.11-.53.17-.87.17-.34 0-.64-.06-.88-.17-.24-.11-.43-.27-.56-.47a1.36 1.36 0 0 1-.19-.74v-2.09c0-.29.06-.54.19-.74.13-.21.32-.36.56-.47.24-.11.54-.16.88-.16.52 0 .93.12 1.21.36.28.23.42.57.43 1.01v2.09Zm2.97-4.12c-.13.05-.23.11-.3.17-.07.05-.12.13-.15.21-.03.09-.04.2-.04.34v8.08c0 .11.02.18.07.23.04.05.12.07.22.07h.53c.12 0 .2-.02.24-.06.05-.04.07-.12.06-.24v-2.62c.33.11.63.2.9.25.28.06.52.09.75.09 1.79 0 2.68-.86 2.68-2.57v-1.78c0-.85-.22-1.48-.66-1.9-.44-.43-1.1-.64-1.97-.64-.46 0-.89.04-1.27.1-.39.06-.74.15-1.06.27Zm3.83 3.91c0 .52-.14.91-.41 1.18-.27.26-.68.39-1.23.39-.21 0-.43-.02-.69-.08-.26-.05-.55-.14-.87-.24v-4.04c0-.07.01-.13.04-.16.02-.04.07-.07.15-.1.22-.07.44-.11.66-.15.22-.03.45-.04.68-.04.56 0 .97.13 1.25.38.28.26.42.65.42 1.16v1.7Zm2.8-4.09c-.12 0-.2.02-.24.06-.05.05-.07.13-.06.25v5.9c0 .2.1.3.3.3h.53c.12 0 .23-.05.3-.15l2.71-3.7c.15-.2.28-.4.4-.6.12-.19.22-.37.31-.56h.04c-.07.33-.12.63-.16.91-.03.28-.04.54-.04.77v3.03c-.01.11.02.19.06.24.04.04.12.06.24.06h.53c.12 0 .2-.02.24-.06.04-.05.06-.13.06-.24v-5.9c0-.12-.02-.2-.06-.25-.04-.04-.12-.06-.24-.06h-.53c-.06 0-.12.02-.17.04-.05.03-.09.06-.12.11l-2.75 3.74c-.28.36-.51.74-.68 1.13h-.04c.07-.27.12-.54.15-.81.03-.28.05-.55.05-.83v-3.07c0-.12-.02-.2-.06-.25-.04-.04-.12-.06-.24-.06h-.53Zm12.48 5.46v-5.15c0-.12-.03-.2-.07-.25-.05-.04-.13-.06-.24-.06H28.4c-.11 0-.18.02-.23.06-.05.05-.07.13-.07.25v1.9c0 .52-.02.97-.06 1.34-.03.38-.09.68-.16.9-.07.24-.16.44-.26.6-.1.17-.22.31-.35.41h-.35c-.1 0-.18.02-.22.07-.04.05-.07.13-.07.25v2.18c0 .11.03.18.07.23.04.05.12.07.22.07h.5c.1 0 .18-.02.23-.07.06-.05.08-.13.08-.23v-1.45h4.99v1.45c0 .11.02.18.07.23.05.05.12.07.23.07h.49c.12 0 .2-.02.24-.07.04-.05.07-.12.06-.23v-2.18c.01-.12-.02-.2-.06-.25-.04-.05-.12-.07-.24-.07h-.64Zm-3.67-4.41h2.53v4.41h-3.17c.21-.3.37-.72.48-1.25.1-.53.16-1.17.16-1.94v-1.22Zm5.91-1.05c-.11 0-.19.02-.24.06-.04.05-.06.13-.06.25v5.9c0 .2.1.3.3.3h.53c.13 0 .23-.05.31-.15l2.71-3.7c.14-.2.28-.4.39-.6.12-.19.23-.37.32-.56h.03c-.07.33-.12.63-.15.91s-.05.54-.05.77v3.03c0 .11.02.19.06.24.05.04.13.06.24.06h.53c.12 0 .2-.02.25-.06.04-.05.06-.13.06-.24v-5.9c0-.12-.02-.2-.06-.25-.05-.04-.13-.06-.25-.06h-.53c-.06 0-.12.02-.16.04-.05.03-.09.06-.13.11l-2.75 3.74c-.27.36-.5.74-.68 1.13h-.04c.07-.27.12-.54.16-.81.03-.28.05-.55.05-.83v-3.07c0-.12-.02-.2-.06-.25-.05-.04-.13-.06-.25-.06h-.53Zm6.41 1.83c0 .8.21 1.4.63 1.8.41.4 1.06.6 1.93.6.75 0 1.28-.07 1.59-.19v2.17c0 .11.03.19.08.24.04.04.12.06.23.06h.53c.1 0 .18-.02.23-.06.05-.05.07-.13.07-.24v-5.9c0-.12-.02-.2-.07-.25-.05-.04-.13-.06-.23-.06h-.53c-.11 0-.19.02-.23.06-.05.05-.08.13-.08.25v2.67c-.37.15-.85.23-1.43.23-1.06 0-1.59-.47-1.59-1.4v-1.5c0-.11-.02-.19-.07-.24-.04-.04-.12-.07-.22-.07h-.53c-.12 0-.2.02-.25.06-.04.05-.06.13-.06.25v1.52Zm6.63 2.25c0 .54.1 1 .31 1.39.2.39.51.69.93.91.41.21.93.32 1.56.32.65 0 1.21-.11 1.66-.33.46-.21.81-.54 1.05-.97.14-.21.1-.38-.11-.49l-.34-.18c-.11-.07-.2-.09-.27-.07-.08.01-.15.08-.22.18-.17.29-.41.51-.7.66-.3.14-.65.21-1.06.21-.55 0-.97-.13-1.26-.39-.28-.26-.43-.63-.43-1.12v-.6h4.11c.16 0 .28-.04.36-.11.07-.08.11-.19.11-.33v-.74c0-.52-.11-.98-.32-1.37-.22-.39-.54-.69-.96-.91-.42-.21-.95-.32-1.57-.33-.62.01-1.14.11-1.57.32-.42.21-.74.52-.95.92-.22.4-.33.89-.33 1.46v1.57Zm4.58-1.35h-3.46v-.37c0-.33.07-.62.2-.85.13-.24.33-.42.58-.55.26-.12.57-.19.95-.19.56 0 .99.14 1.28.42.3.27.45.66.45 1.17v.37Zm2.17 1.42c0 .54.1 1 .31 1.38.2.38.5.67.91.87.41.2.92.3 1.53.3 1.42 0 2.35-.58 2.76-1.74.04-.1.04-.19 0-.26-.03-.07-.11-.13-.21-.17l-.44-.13c-.12-.04-.21-.05-.27-.02-.06.03-.12.11-.16.23-.12.36-.32.64-.59.82-.28.18-.63.27-1.07.27-.53 0-.94-.13-1.22-.39s-.41-.63-.42-1.11v-1.9c.01-.48.14-.84.42-1.1.28-.26.69-.39 1.22-.39.44 0 .79.09 1.07.27.27.17.46.44.57.79.05.11.11.19.18.22.07.03.15.03.25-.02l.45-.14c.1-.04.17-.09.21-.16.03-.07.02-.16-.01-.27-.18-.56-.49-.98-.93-1.26-.44-.28-1.02-.43-1.74-.43-.62.01-1.15.11-1.56.3-.42.2-.74.49-.95.87-.21.38-.31.83-.31 1.37v1.8Zm11.1-.24c-.13-.27-.28-.49-.45-.66-.17-.17-.36-.3-.56-.37l2.02-2.52c.1-.12.13-.21.1-.27-.04-.06-.13-.09-.29-.09h-.48c-.12 0-.21.01-.28.01-.07.01-.13.03-.17.07-.05.03-.09.08-.14.15l-1.88 2.43h-1.11v-2.35c0-.12-.02-.2-.07-.25-.05-.04-.13-.06-.25-.06h-.5c-.12 0-.2.02-.25.06-.05.05-.07.13-.07.25v5.88c0 .12.02.2.07.25.05.05.13.07.25.07h.5c.12 0 .2-.02.25-.07.05-.05.07-.13.07-.25v-2.48h1.15c.19 0 .36.02.5.07.14.04.26.12.36.22.1.1.2.24.27.4l.87 1.83c.04.08.08.14.11.18.04.04.09.07.15.08.06.01.15.02.26.02h.49c.15 0 .23-.03.26-.08.03-.06.01-.15-.07-.27L66 32.27Zm2.5-3.91c-.12 0-.2.02-.24.06-.04.05-.06.13-.06.25v5.9c0 .2.1.3.3.3h.53c.13 0 .23-.05.3-.15l2.72-3.7c.14-.2.27-.4.39-.6.12-.19.22-.37.31-.56h.04c-.07.33-.12.63-.15.91s-.05.54-.05.77v3.03c0 .11.02.19.06.24.04.04.12.06.24.06h.53c.12 0 .2-.02.24-.06.05-.05.07-.13.06-.24v-5.9c.01-.12-.01-.2-.06-.25-.04-.04-.12-.06-.24-.06h-.53c-.06 0-.12.02-.17.04-.05.03-.09.06-.12.11l-2.75 3.74c-.28.36-.5.74-.68 1.13h-.04c.07-.27.12-.54.15-.81.04-.28.05-.55.05-.83v-3.07c0-.12-.02-.2-.06-.25-.04-.04-.12-.06-.24-.06h-.53Zm6.56 4.08c0 .54.1 1 .31 1.39.21.39.52.69.93.91.42.21.94.32 1.56.32.66 0 1.21-.11 1.67-.33.45-.21.8-.54 1.05-.97.13-.21.1-.38-.12-.49l-.34-.18c-.1-.07-.19-.09-.27-.07-.07.01-.15.08-.22.18-.17.29-.4.51-.7.66-.29.14-.64.21-1.05.21-.56 0-.97-.13-1.26-.39-.29-.26-.43-.63-.44-1.12v-.6h4.12c.16 0 .27-.04.35-.11.08-.08.11-.19.11-.33v-.74c0-.52-.1-.98-.32-1.37-.22-.39-.54-.69-.96-.91-.42-.21-.94-.32-1.57-.33-.62.01-1.14.11-1.56.32-.42.21-.74.52-.96.92-.22.4-.33.89-.33 1.46v1.57Zm4.58-1.35h-3.46v-.37c0-.33.07-.62.2-.85.13-.24.33-.42.59-.55.25-.12.57-.19.94-.19.57 0 1 .14 1.29.42.29.27.44.66.44 1.17v.37Zm9.64 1.18c-.13-.27-.28-.49-.45-.66-.17-.17-.36-.3-.56-.37l2.02-2.52c.1-.12.13-.21.1-.27-.04-.06-.13-.09-.29-.09h-.48c-.12 0-.21.01-.28.01-.07.01-.13.03-.17.07-.05.03-.09.08-.14.15l-1.88 2.43h-1.11v-2.35c0-.12-.02-.2-.07-.25-.05-.04-.13-.06-.25-.06h-.5c-.12 0-.2.02-.25.06-.05.05-.07.13-.07.25v5.88c0 .12.02.2.07.25.05.05.13.07.25.07h.5c.12 0 .2-.02.25-.07.05-.05.07-.13.07-.25v-2.48h1.15c.19 0 .36.02.5.07.14.04.26.12.36.22.1.1.2.24.27.4l.87 1.83c.04.08.08.14.11.18.04.04.09.07.15.08.06.01.15.02.26.02h.49c.15 0 .23-.03.26-.08.03-.06.01-.15-.07-.27l-1.11-2.25Zm2 .38c0 .5.11.93.34 1.29.22.36.54.63.96.83.42.19.93.29 1.52.29.61 0 1.12-.1 1.54-.29.42-.2.74-.47.97-.83.22-.36.33-.79.33-1.29v-2.06c0-.5-.11-.93-.33-1.3-.23-.36-.55-.63-.97-.82-.42-.2-.93-.29-1.54-.3-.59.01-1.1.1-1.52.3-.42.19-.74.46-.96.82-.23.37-.34.8-.34 1.3v2.06Zm4.54 0c0 .29-.07.54-.21.75-.13.2-.33.36-.59.47-.25.11-.56.17-.92.17-.35 0-.66-.06-.91-.17-.26-.11-.45-.27-.59-.47-.13-.21-.2-.46-.2-.75v-2.07c0-.29.07-.54.2-.74.14-.21.33-.37.59-.48.25-.11.56-.16.91-.16.36 0 .67.05.92.16.26.11.46.27.59.48.14.2.21.45.21.74v2.07Zm7.11-4.29c-.1 0-.18.02-.23.06-.04.05-.07.13-.07.25v2.35h-3.19v-2.35c0-.12-.02-.2-.06-.25-.05-.04-.13-.06-.24-.06h-.53c-.12 0-.2.02-.25.06-.04.05-.06.13-.06.25v5.9c0 .2.1.3.31.3h.53c.11 0 .19-.02.24-.06.04-.05.06-.13.06-.24v-2.5h3.19v2.5c0 .11.03.19.07.24.05.04.13.06.23.06h.53c.11 0 .19-.02.24-.06a.38.38 0 0 0 .07-.24v-5.9c0-.12-.03-.2-.07-.25-.05-.04-.13-.06-.24-.06h-.53Zm2.19 4.15c0 .54.1 1 .3 1.38.21.38.51.67.92.87.41.2.92.3 1.53.3 1.42 0 2.35-.58 2.76-1.74.04-.1.04-.19 0-.26-.03-.07-.11-.13-.21-.17l-.44-.13c-.12-.04-.21-.05-.27-.02-.06.03-.12.11-.16.23-.12.36-.32.64-.59.82-.28.18-.63.27-1.07.27-.53 0-.94-.13-1.22-.39s-.41-.63-.42-1.11v-1.9c.01-.48.14-.84.42-1.1.28-.26.69-.39 1.22-.39.44 0 .79.09 1.07.27.27.17.46.44.57.79.05.11.11.19.18.22.07.03.15.03.25-.02l.44-.14c.11-.04.18-.09.22-.16.03-.07.02-.16-.01-.27-.18-.56-.49-.98-.93-1.26-.44-.28-1.02-.43-1.74-.43-.62.01-1.15.11-1.56.3-.42.2-.74.49-.95.87-.21.38-.31.83-.31 1.37v1.8Zm11.34-4.15c-.11 0-.18.02-.23.06-.05.05-.07.13-.07.25v4.85c-.29.09-.56.16-.83.2-.27.04-.53.06-.79.06-.53 0-.92-.12-1.19-.37-.26-.25-.4-.63-.4-1.13v-3.61a.33.33 0 0 0-.06-.24.35.35 0 0 0-.23-.07h-.53c-.11 0-.19.02-.24.06-.04.05-.06.13-.06.25v3.65c0 .83.21 1.46.64 1.87.43.42 1.07.63 1.92.63.27 0 .55-.02.84-.07.3-.04.61-.11.93-.2v.68c0 .56-.14.98-.41 1.25-.27.28-.67.42-1.21.42-.36 0-.67-.07-.93-.21-.25-.14-.47-.35-.63-.64a.916.916 0 0 0-.14-.14.206.206 0 0 0-.15-.03c-.06 0-.13.02-.2.06l-.37.2c-.11.06-.17.13-.19.2-.03.08 0 .17.06.28.25.43.59.75 1.01.97.43.21.94.32 1.56.32 1.81 0 2.72-.91 2.72-2.73v-6.51c0-.12-.02-.2-.06-.25-.04-.04-.12-.06-.24-.06h-.52Zm3.35 0c-.12 0-.2.02-.25.06-.04.05-.06.13-.06.25v1.96c0 .66-.03 1.21-.09 1.65-.07.44-.17.77-.31 1-.09.15-.17.27-.25.35-.08.08-.16.15-.24.21-.08.05-.19.11-.31.17a.35.35 0 0 0-.13.15c-.02.06-.01.13.02.2l.27.51c.04.08.09.13.15.16.06.02.13.02.21-.01.17-.08.32-.17.46-.26s.26-.2.38-.33c.13-.14.25-.3.37-.51.19-.3.33-.72.43-1.26.09-.54.14-1.19.14-1.95v-1.3h2.44v5.16c-.01.11.01.19.06.24.04.04.12.06.24.06h.52c.1 0 .18-.02.23-.06.05-.05.07-.13.07-.24v-5.9c0-.12-.02-.2-.07-.25-.05-.04-.13-.06-.23-.06h-4.05Zm6.96 1.97v-1.66c0-.12-.02-.2-.06-.25-.05-.04-.12-.06-.24-.06h-.53c-.12 0-.2.02-.24.06-.05.05-.07.13-.07.25v5.9c0 .11.02.19.07.24.04.04.12.06.24.06h2.79c.48 0 .9-.1 1.24-.28.35-.18.61-.44.8-.78.18-.34.28-.75.28-1.22 0-.48-.1-.88-.28-1.22-.19-.33-.45-.59-.8-.77-.34-.18-.76-.27-1.24-.27h-1.96Zm0 3.53v-2.51h1.82c.4.01.71.11.93.33.23.22.34.52.34.91 0 .4-.11.71-.34.93-.22.22-.53.34-.93.34h-1.82Zm5.1-5.5c-.12 0-.2.02-.24.06-.05.05-.07.13-.07.25v.44c0 .1.02.18.07.23.04.05.12.07.24.07h1.84v5.16c0 .11.02.19.06.24.05.04.12.06.24.06h.53c.11 0 .18-.02.23-.06a.33.33 0 0 0 .06-.24v-5.16h1.84c.11 0 .19-.02.24-.07a.37.37 0 0 0 .07-.23v-.44c0-.12-.03-.2-.07-.25-.05-.04-.13-.06-.24-.06h-4.8Zm5.94 1.14c-.05.1-.06.19-.03.25.02.08.09.13.19.18l.4.17c.07.03.13.05.18.05.04 0 .08-.02.11-.05.03-.03.07-.08.12-.15.16-.26.37-.45.63-.58.26-.12.57-.19.94-.19.36 0 .66.06.88.18.22.11.38.28.48.5.09.23.14.5.14.82v.48c-.25-.03-.5-.05-.74-.06-.24-.02-.47-.03-.7-.03-.68 0-1.22.06-1.63.19-.42.13-.72.34-.91.63-.18.29-.28.68-.27 1.16 0 .35.05.65.15.9.1.25.24.46.44.62.19.16.47.28.84.36.36.09.81.13 1.33.13.47 0 .89-.03 1.25-.09.36-.05.67-.13.92-.24.12-.05.21-.1.28-.16.06-.05.11-.12.13-.21.03-.09.04-.2.04-.35v-3.29c.01-.53-.08-.98-.25-1.36a1.86 1.86 0 0 0-.83-.88c-.39-.2-.9-.3-1.53-.31-.62 0-1.15.11-1.58.33-.42.22-.75.56-.98 1Zm4.04 4.18c0 .07-.02.13-.05.18-.03.04-.08.08-.14.1-.29.1-.76.15-1.4.15-.39 0-.7-.04-.92-.11-.22-.08-.38-.2-.47-.35-.1-.16-.14-.36-.14-.6s.05-.45.15-.6c.1-.16.26-.27.48-.35.23-.07.54-.11.92-.11.19 0 .41.01.67.03.27.02.56.04.9.08v1.58Zm7.93.14v-5.15c0-.12-.02-.2-.07-.25-.04-.04-.12-.06-.23-.06h-.53c-.1 0-.18.02-.23.06-.05.05-.07.13-.07.25v5.15h-3.07v-5.15c.01-.12-.02-.2-.06-.25-.04-.04-.12-.06-.24-.06h-.53c-.2 0-.3.1-.3.31v5.9c0 .11.02.19.06.24.04.04.12.06.24.06h4.88v1.45c0 .11.03.18.08.23.04.05.12.07.23.07h.49c.12 0 .2-.02.24-.07.04-.05.06-.12.06-.23v-2.18c0-.12-.02-.2-.06-.25-.04-.05-.12-.07-.24-.07h-.65ZM152.03 28.36c-.12 0-.2.02-.24.06-.04.05-.06.13-.06.25v5.9c0 .2.1.3.3.3h.53c.13 0 .23-.05.3-.15l2.72-3.7c.14-.2.27-.4.39-.59.12-.2.23-.38.31-.57h.04c-.07.33-.12.63-.15.91s-.05.54-.05.77v3.03c0 .11.02.19.06.24.04.04.12.06.24.06h.53c.12 0 .2-.02.24-.06.05-.05.07-.13.06-.24v-5.9c.01-.12-.01-.2-.06-.25-.04-.04-.12-.06-.24-.06h-.53c-.06 0-.12.02-.17.04-.04.03-.09.06-.12.12l-2.75 3.73c-.28.36-.5.74-.68 1.13h-.04c.07-.27.12-.54.16-.81.03-.27.04-.55.04-.83v-3.07c.01-.12-.01-.2-.06-.25-.04-.04-.12-.06-.24-.06h-.53Zm7.09 0c-.12 0-.2.02-.24.06-.04.05-.06.13-.06.25v5.9c0 .2.1.3.3.3h.53c.13 0 .23-.05.31-.15l2.71-3.7c.14-.2.28-.4.39-.59.12-.2.23-.38.31-.57h.04c-.07.33-.12.63-.15.91s-.05.54-.05.77v3.03c0 .11.02.19.06.24.05.04.12.06.24.06h.53c.12 0 .2-.02.25-.06.04-.05.06-.13.06-.24v-5.9c0-.12-.02-.2-.06-.25-.05-.04-.13-.06-.25-.06h-.53c-.06 0-.12.02-.17.04-.04.03-.09.06-.12.12l-2.75 3.73c-.28.36-.5.74-.68 1.13h-.04c.07-.27.12-.54.16-.81.03-.27.05-.55.05-.83v-3.07c0-.12-.02-.2-.07-.25-.04-.04-.12-.06-.24-.06h-.53Zm9.47 4.29c0 .5.11.93.34 1.29.22.36.54.64.96.83.42.19.93.29 1.52.29.61 0 1.12-.1 1.54-.29.42-.19.74-.47.97-.83.22-.36.33-.79.33-1.29V30.6c0-.51-.11-.94-.33-1.31a2.24 2.24 0 0 0-.97-.82c-.42-.2-.93-.29-1.54-.3-.59.01-1.1.1-1.52.3-.42.19-.74.47-.96.82-.23.37-.34.8-.34 1.31v2.05Zm4.54 0c0 .29-.07.54-.21.75-.13.2-.33.36-.59.47-.25.11-.56.17-.92.17-.35 0-.66-.06-.91-.17a1.39 1.39 0 0 1-.59-.47c-.13-.21-.2-.46-.2-.75v-2.07c0-.29.07-.54.2-.74.14-.21.34-.37.59-.48.25-.11.56-.16.91-.16.36 0 .67.05.92.16.26.11.46.27.59.48.14.2.21.45.21.74v2.07Zm7.11-4.29c-.1 0-.18.02-.23.06-.05.05-.07.13-.07.25v2.35h-3.19v-2.35c0-.12-.02-.2-.06-.25-.05-.04-.13-.06-.24-.06h-.53c-.12 0-.2.02-.25.06-.04.05-.06.13-.06.25v5.9c0 .2.1.3.31.3h.53c.11 0 .19-.02.24-.06.04-.05.06-.13.06-.24v-2.5h3.19v2.5c0 .11.02.19.07.24.05.04.13.06.23.06h.53c.11 0 .19-.02.24-.06a.38.38 0 0 0 .07-.24v-5.9c0-.12-.03-.2-.07-.25-.05-.04-.13-.06-.24-.06h-.53Zm3.39 0c-.12 0-.2.02-.25.06-.04.05-.06.13-.06.25v1.96c0 .66-.03 1.21-.09 1.65-.07.44-.17.77-.31 1-.09.15-.17.27-.25.35-.07.08-.15.15-.24.21-.08.05-.19.11-.31.17-.06.05-.11.1-.13.16-.02.05-.01.12.02.19l.27.51c.04.08.09.13.15.16.06.02.13.02.21-.01.17-.08.33-.17.46-.26.14-.09.27-.2.39-.33.12-.14.24-.3.36-.51.19-.3.33-.72.43-1.26.09-.54.14-1.19.14-1.95v-1.3h2.44v5.16c-.01.11.02.19.06.24.04.04.12.06.24.06h.52c.1 0 .18-.02.23-.06.05-.05.07-.13.07-.24v-5.9c0-.12-.02-.2-.07-.25-.05-.04-.13-.06-.23-.06h-4.05Zm5.7 1.14c-.05.1-.06.19-.04.25.03.08.1.13.2.18l.39.17c.08.03.14.05.19.05.04 0 .08-.02.11-.05.03-.03.07-.08.12-.15.16-.26.37-.45.63-.58.26-.12.57-.19.94-.19.36 0 .66.06.88.18.22.11.38.28.47.5.1.23.15.5.15.82v.48c-.26-.03-.5-.05-.74-.06-.24-.02-.47-.03-.7-.03-.68 0-1.22.07-1.63.19-.42.13-.72.34-.91.63-.18.29-.28.68-.27 1.16 0 .35.05.65.14.9.11.26.25.46.45.62.19.16.47.28.84.36.36.09.8.13 1.33.13.47 0 .89-.03 1.25-.09.36-.05.67-.13.92-.24.12-.05.21-.1.27-.15a.4.4 0 0 0 .14-.22c.03-.09.04-.2.04-.35v-3.29c0-.53-.08-.98-.25-1.36a1.86 1.86 0 0 0-.83-.88c-.39-.2-.9-.3-1.53-.31-.62 0-1.15.11-1.58.33-.43.23-.75.56-.98 1Zm4.04 4.18c0 .07-.02.13-.05.18-.03.04-.08.08-.14.1-.29.1-.76.15-1.4.15-.39 0-.7-.04-.92-.11-.22-.08-.38-.2-.47-.35-.1-.16-.14-.36-.14-.6s.05-.45.15-.6c.09-.16.26-.27.48-.35.23-.07.54-.11.92-.11.19 0 .41.01.67.03.26.02.56.04.9.08v1.58Zm7.35-7.55c.02-.06.02-.12 0-.16-.02-.05-.07-.08-.14-.12l-.44-.16c-.12-.04-.21 0-.26.11-.17.56-.53.84-1.1.84-.28 0-.51-.07-.69-.21-.18-.14-.31-.35-.39-.63-.03-.05-.07-.09-.12-.1a.304.304 0 0 0-.19 0l-.39.15c-.07.02-.11.06-.14.11-.02.04-.02.1 0 .17.15.45.38.78.7 1.01.31.22.72.33 1.22.33.51 0 .92-.11 1.24-.33.32-.23.56-.56.7-1.01Zm-4.45 2.23c-.12 0-.2.02-.24.06-.04.05-.07.13-.06.25v5.9c0 .2.1.3.3.3h.53c.13 0 .23-.05.3-.15l2.72-3.7c.14-.2.27-.4.39-.59.12-.2.22-.38.31-.57h.04c-.07.33-.12.63-.15.91-.04.28-.05.54-.05.77v3.03c0 .11.02.19.06.24.04.04.12.06.24.06h.53c.12 0 .2-.02.24-.06a.33.33 0 0 0 .06-.24v-5.9c.01-.12-.02-.2-.06-.25-.04-.04-.12-.06-.24-.06h-.53c-.06 0-.12.02-.17.04-.05.03-.09.06-.12.12l-2.75 3.73c-.28.36-.51.74-.68 1.13h-.04c.07-.27.12-.54.15-.81.04-.27.05-.55.05-.83v-3.07c0-.12-.02-.2-.06-.25-.04-.04-.12-.06-.24-.06h-.53Zm11.42 0c-.11 0-.18.02-.23.06-.05.05-.07.13-.07.25v2.35h-3.2v-2.35c.01-.12-.02-.2-.06-.25-.04-.04-.12-.06-.24-.06h-.53c-.12 0-.2.02-.24.06-.04.05-.06.13-.06.25v5.9c0 .2.1.3.3.3h.53c.12 0 .2-.02.24-.06a.33.33 0 0 0 .06-.24v-2.5h3.2v2.5c0 .11.02.19.07.24.05.04.12.06.23.06h.53c.11 0 .18-.02.23-.06.05-.05.07-.13.07-.24v-5.9c0-.12-.02-.2-.07-.25-.05-.04-.12-.06-.23-.06h-.53Z" fill="#140A32"/><path d="M12.66 2.59c-.71-1.55-1.71-2.32-3-2.41h-5.3C3.19 1.57 1.73 3.39 0 5.66c2.32-.01 4.83-.17 7.41.11 2.06.22 3.76.93 4.99 2.3.17-2.18.2-3.98.26-5.48Z" fill="#115B82"/><path d="M12.66 2.59c-.71-1.55-1.71-2.32-3-2.41h-5.3C3.19 1.57 1.73 3.39 0 5.66c2.32-.01 4.83-.17 7.41.11 2.06.22 3.76.93 4.99 2.3.17-2.18.2-3.98.26-5.48Z" fill="#115B82"/><path d="M5.29 6.72v17.34h7.09V9.68C10.52 7.45 8.1 6.84 5.29 6.72Z" fill="#115B82"/><path d="M5.29 6.72v17.34h7.09V9.68C10.52 7.45 8.1 6.84 5.29 6.72ZM29.06 23.83c-3.19.27-6.78.66-9.76-.8-1.69-.83-3.03-1.99-4-3.5-2.06-3.17-2.4-10.41-.24-14.35.57-1.02 1.37-1.81 2.31-2.49C19.71.98 22.86.09 26.81 0c-4.2 3.33-5.98 5.78-6.3 9.51-.17 2.06-.31 5.98 1.43 7.38.45.36.96.66 1.55.87 2.92 1.03 7.62.47 10.32.2-1.75 2.93-3.57 4.95-4.75 5.87Z" fill="#115B82"/><path d="M29.06 23.83c-3.19.27-6.78.66-9.76-.8-1.69-.83-3.03-1.99-4-3.5-2.06-3.17-2.4-10.41-.24-14.35.57-1.02 1.37-1.81 2.31-2.49C19.71.98 22.86.09 26.81 0c-4.2 3.33-5.98 5.78-6.3 9.51-.17 2.06-.31 5.98 1.43 7.38.45.36.96.66 1.55.87 2.92 1.03 7.62.47 10.32.2-1.75 2.93-3.57 4.95-4.75 5.87ZM51.38.38c3.19-.27 6.78-.66 9.76.8 1.69.83 3.02 1.99 4 3.5 2.05 3.17 2.4 10.41.23 14.35-.56 1.02-1.36 1.81-2.3 2.49-2.34 1.71-5.49 2.6-9.45 2.69 4.21-3.33 5.99-5.78 6.3-9.51.18-2.06.31-5.98-1.43-7.38-.44-.36-.96-.66-1.54-.87-2.93-1.03-7.62-.47-10.33-.2C48.38 3.32 50.2 1.3 51.38.38Z" fill="#115B82"/><path d="M51.38.38c3.19-.27 6.78-.66 9.76.8 1.69.83 3.02 1.99 4 3.5 2.05 3.17 2.4 10.41.23 14.35-.56 1.02-1.36 1.81-2.3 2.49-2.34 1.71-5.49 2.6-9.45 2.69 4.21-3.33 5.99-5.78 6.3-9.51.18-2.06.31-5.98-1.43-7.38-.44-.36-.96-.66-1.54-.87-2.93-1.03-7.62-.47-10.33-.2C48.38 3.32 50.2 1.3 51.38.38Z" fill="#115B82"/><path d="M30.53 24c3.36-2.8 5.46-5.9 5.96-10.01.14-1.21.12-2.44.24-3.66.23-2.37.81-4.77 2.6-6.58 2.19-2.2 5.45-3.31 10.3-3.67-4 3.59-5.47 6.52-6.05 11.06-.15 1.11-.17 2.23-.35 3.33-1.02 6.18-6.11 9.8-12.7 9.53Z" fill="#115B82"/><path d="M30.53 24c3.36-2.8 5.46-5.9 5.96-10.01.14-1.21.12-2.44.24-3.66.23-2.37.81-4.77 2.6-6.58 2.19-2.2 5.45-3.31 10.3-3.67-4 3.59-5.47 6.52-6.05 11.06-.15 1.11-.17 2.23-.35 3.33-1.02 6.18-6.11 9.8-12.7 9.53ZM35.48 7.88c-1.06-.86-2-1.27-3.01-1.53-2.89-.72-6.28-.3-9.4-.21 1.74-3.06 3.54-4.98 5.34-5.97 1.5-.05 2.91-.05 4.25.03 1.56.08 2.82.26 4.26.85.94.39 1.53.76 1.77 1.11-1.78 1.69-2.85 3.62-3.21 5.72Z" fill="#115B82"/><path d="M35.48 7.88c-1.06-.86-2-1.27-3.01-1.53-2.89-.72-6.28-.3-9.4-.21 1.74-3.06 3.54-4.98 5.34-5.97 1.5-.05 2.91-.05 4.25.03 1.56.08 2.82.26 4.26.85.94.39 1.53.76 1.77 1.11-1.78 1.69-2.85 3.62-3.21 5.72ZM44.17 16.33c1.09.86 2.04 1.27 3.08 1.53 2.97.72 6.45.3 9.65.21-1.78 3.06-3.63 4.98-5.47 5.97-1.55.05-3 .05-4.38-.03-1.59-.08-2.89-.26-4.37-.85-.96-.39-1.57-.76-1.81-1.11 1.82-1.69 2.92-3.62 3.3-5.72Z" fill="#115B82"/><path d="M44.17 16.33c1.09.86 2.04 1.27 3.08 1.53 2.97.72 6.45.3 9.65.21-1.78 3.06-3.63 4.98-5.47 5.97-1.55.05-3 .05-4.38-.03-1.59-.08-2.89-.26-4.37-.85-.96-.39-1.57-.76-1.81-1.11 1.82-1.69 2.92-3.62 3.3-5.72Z" fill="#115B82"/></g></svg></svg>